<svg xmlns="http://www.w3.org/2000/svg" width="400" height="400"><g fill-rule="evenodd"><path fill="#090a0b" d="M167.034 55.456c-.132.343-.617 1.101-1.079 1.684-.461.583-1.415 2.101-2.119 3.373l-1.281 2.312-1.377-.995c-2.939-2.124-3.57-2.361-4.365-1.642-.392.355-1.411.743-2.263.861-2.336.324-3.254.917-4.371 2.823-.559.954-1.456 2.022-1.994 2.375-.569.372-1.16 1.317-1.414 2.26-.467 1.734-2.312 3.893-3.328 3.893-.494 0-.426.285.34 1.413 1.236 1.821 1.561 3.374 1.242 5.929a300.629 300.629 0 0 0-.301 2.458c-.023.22.532.736 1.234 1.147 1.404.821 2.84.16 2.843-1.309.005-1.762 1.501-3.161 3.873-3.622 1.279-.248 3.712-.984 5.406-1.634 3.967-1.523 5.386-1.519 7.32.018 2.198 1.746 3.098 1.546 3.598-.8.479-2.247 1.292-3.486 2.484-3.785.611-.153 1.202-.423 1.314-.599.288-.453 3.852-4.556 6.062-6.979 1.344-1.473 2.081-2.756 2.663-4.637l.805-2.6-1.063-.484c-.695-.317-2.885-.456-6.328-.4-4.877.078-5.353.019-6.463-.801-1.033-.762-1.231-.798-1.438-.259m18.205.921c-2.331 1.185-2.062 1.604 1.037 1.618 1.516.006 1.786-.317 1.407-1.689l-.283-1.026-2.161 1.097m86.2 5.18c-.808.893-.614 1.979.54 3.024.723.654.791.636 1.456-.378 1.335-2.038-.429-4.377-1.996-2.646M286.829 66c-.258.99-.565 2.07-.683 2.4-.118.33-.351 3.03-.517 6-.39 6.983-1.486 10.617-3.324 11.021-1.175.258-1.196.305-.946 2.121.142 1.022.371 3.71.511 5.973.286 4.637.504 5.031 1.81 3.257 1.699-2.309 3.175-2.76 6.241-1.91 2.494.692 2.665.693 3.394.034 2.254-2.04 2.827-5.931 1.356-9.209-.568-1.266-1.248-3.649-1.512-5.295-.264-1.645-.744-3.521-1.068-4.167-.324-.646-.684-2.698-.8-4.56-.214-3.432-.279-3.579-2.331-5.304-.418-.351-.963-.981-1.212-1.4-.4-.675-.504-.557-.919 1.039m-10.805 10.174c-.912.972-.913.98-.226 3.3 1.776 5.997 1.49 5.513 3.333 5.649 1.947.143 2.19-.747 1.069-3.923-.33-.935-.6-2.114-.6-2.62 0-.879-1.751-3.38-2.366-3.38-.162 0-.706.438-1.21.974m4.294 68.776c-.815.299-2.345 1.085-3.4 1.748-1.055.662-2.458 1.331-3.118 1.484-.66.154-2.408.81-3.884 1.457-2.327 1.019-3.353 1.21-7.703 1.43-5.606.285-6.369.623-5.251 2.329.361.551.811 1.002 1.001 1.002.189 0 .747.992 1.239 2.205 1.183 2.915 2.515 3.976 5.764 4.589 4.032.76 6.297 3.839 6.918 9.402.465 4.171.909 3.819 1.698-1.346.505-3.306 1.593-5.347 4.271-8.015 1.605-1.599 2.708-3.27 4.223-6.4 2.441-5.043 2.745-5.43 5.074-6.46 2.19-.969 1.775-1.694-1.659-2.897-3.075-1.077-3.544-1.125-5.173-.528m-46.256 2.603c-.405.257-.305.404.4.595 1.226.331 2.413 2.013 2.483 3.517.052 1.128-.184 1.321-4.109 3.363-2.29 1.192-4.234 2.236-4.318 2.321-.376.376 3.779 2.376 6.195 2.983l2.663.668 1.973-1.899 1.974-1.899-.736-1.63c-.404-.897-1.151-1.958-1.661-2.359-.509-.4-.926-.87-.926-1.044 0-.518 1.715-3.949 2.106-4.214.976-.66-5.008-1.058-6.044-.402m-47.864 4.049c-1.119 1.236-.659 1.349 6.922 1.698 3.894.179 8.866.455 11.05.613l3.969.287.85 1.6c.467.88 1.335 2.121 1.93 2.758.595.638 1.081 1.313 1.081 1.5 0 1.122.962-.096 2.432-3.077.927-1.88 2.028-3.657 2.445-3.95 1.344-.942-.166-1.122-10.582-1.266-5.448-.075-11.722-.323-13.943-.551-5.302-.544-5.311-.543-6.154.388m124.502.063c-1.041.38-1.527 1.135-.731 1.135.203 0 .896.443 1.54.985l1.17.985 1.104-1.152 1.104-1.153-1.224-.632c-1.384-.716-1.452-.72-2.963-.168m-48.9 65.508c-1.414.593 1.182.983 3.531.531l2.069-.399-1.6-.058c-.88-.032-1.96-.137-2.4-.234-.44-.097-1.16-.025-1.6.16m6.8-.017c-1.534.334-.91.722 1.72 1.071 2.062.274 3.559-.252 3.052-1.072-.246-.398-2.942-.397-4.772.001m-111.131 7.132c-.115.187-.407 2.224-.648 4.526-.527 5.025-1.243 7.156-2.791 8.301-.637.471-1.379 1.538-1.649 2.371-1.018 3.143-2.382 5.327-3.729 5.97-.73.348-1.889 1.498-2.591 2.57-1.291 1.971-2.859 2.942-6.528 4.041-1.012.303-2.015 1.026-2.8 2.018-.673.85-1.969 1.921-2.879 2.379-.91.459-2.15 1.428-2.756 2.153-1.332 1.592-2.874 1.983-10.155 2.573-7.097.575-9.255.983-11.343 2.147-1.77.986-5.669 1.943-10 2.454-7.226.852-9.782 1.477-11.4 2.788-2.325 1.884-2.935 2.135-6.855 2.824-3.309.581-17.324.904-18.112.417-1.066-.658-8.898.558-10.91 1.694-1.987 1.123-5.434 2.331-9.445 3.309-.947.231-2.027.783-2.4 1.228-.808.962-3.532 2.854-5.71 3.966-.862.439-2.042 1.517-2.623 2.394-.776 1.172-1.564 1.776-2.971 2.276-1.643.583-1.951.865-2.159 1.976-.232 1.235-3.564 6.137-4.172 6.137-.272 0-.8 1.082-2.163 4.433-.321.788-1.142 1.87-1.824 2.404-1.016.796-1.465 1.722-2.484 5.126-.721 2.412-1.818 5.022-2.613 6.219-.916 1.381-1.572 3.049-1.981 5.041-.871 4.247-1.719 6.257-3.138 7.441-1.446 1.207-2.205 2.412-2.227 3.536-.009.44-.373 1.34-.809 2-1.388 2.102-1.537 2.363-2.45 4.3-.757 1.606-1.07 1.9-2.025 1.9-1.102 0-1.129.053-1.129 2.2v2.2l1.3.053 1.3.052-1.4.295-1.4.295 1.3.052 1.3.053.005 4.1c.008 5.793.085 5.985 2.35 5.881 1.015-.046 2.07-.061 2.345-.033.367.038.5 1.25.5 4.572 0 5.195.147 5.48 2.823 5.48h1.863l.28 4.069c.352 5.105.526 5.436 3.041 5.77l1.993.264v1.575c0 2.452.543 3.122 2.534 3.122 2.144 0 2.666.522 2.666 2.666 0 1.991.67 2.534 3.122 2.534h1.575l.264 1.993c.334 2.514.666 2.69 5.751 3.04l4.051.279.119 2.244.118 2.244 4.792.113c3.707.088 4.866.247 5.12.7.18.323.629.587.997.587.531 0 .486.128-.22.623-.562.393-.889 1.038-.889 1.753 0 1.444.61 1.611 5.9 1.619l4.1.005v2.4h284.8v-2.4l4.1-.005c5.917-.008 5.9 0 5.9-2.842V392.4h4.52c5.195 0 5.48-.147 5.48-2.823v-1.863l4.069-.28c5.105-.352 5.436-.526 5.77-3.041l.264-1.993h1.575c2.452 0 3.122-.543 3.122-2.534 0-2.144.522-2.666 2.666-2.666 1.991 0 2.534-.67 2.534-3.122v-1.575l1.993-.264c2.514-.334 2.69-.666 3.04-5.751l.279-4.051 2.244-.119 2.244-.118.112-4.864.112-4.864-1.112-.79c-.612-.435-1.755-1.059-2.542-1.387-1.892-.788-3.796-3.155-4.846-6.023-.566-1.548-1.288-2.661-2.152-3.32-.715-.546-1.59-1.603-1.944-2.349-.659-1.389-2.828-3.803-3.417-3.803-.181 0-1.155-1.326-2.165-2.947-1.146-1.838-2.855-3.825-4.542-5.278-1.487-1.282-4.489-4.105-6.67-6.275-2.182-2.169-4.702-4.378-5.6-4.909-.899-.531-2.409-1.871-3.356-2.978-.947-1.107-1.961-2.013-2.254-2.013-.292 0-1.178-.717-1.97-1.592-.807-.894-2.539-2.105-3.946-2.76-1.379-.641-3.088-1.729-3.796-2.416-1.341-1.302-4.435-2.832-5.725-2.832-1.025 0-6.971-1.905-8.74-2.801-1.57-.794-5.234-1.335-13.647-2.015-7.005-.566-10.405-1.285-12.994-2.746-1.396-.788-3.505-1.451-6.288-1.979-4.635-.879-6.479-1.536-8.418-3-1.46-1.101-2.845-1.522-8.241-2.497-2.999-.543-4.188-.976-6-2.183-1.242-.829-3.703-1.973-5.469-2.543-8.063-2.606-11.15-10.372-5.123-12.89 1.793-.749 1.77-2.06-.071-4.098-2.467-2.731-3.301-2.814-5.648-.566-1.101 1.055-2.568 2.278-3.261 2.718-.693.44-2.034 1.462-2.98 2.272-1.693 1.448-1.802 1.479-6.854 1.954l-5.134.483-2.86-1.229c-1.572-.676-3.883-1.431-5.135-1.678-1.251-.247-2.691-.774-3.2-1.171-.508-.398-1.824-1.179-2.924-1.737-1.1-.557-2.653-1.534-3.452-2.171-.798-.637-2.778-1.671-4.4-2.297-1.944-.751-3.464-1.665-4.464-2.684-.834-.85-2.403-1.994-3.486-2.543-1.082-.549-2.56-1.505-3.283-2.125-.723-.621-2.755-1.644-4.515-2.275-2.254-.808-3.645-1.596-4.706-2.664-1.042-1.049-2.213-1.72-3.8-2.176-2.437-.701-5.294-2.195-6.133-3.207-.28-.336-1.78-1.219-3.334-1.962-1.794-.857-3.119-1.796-3.627-2.569-.44-.67-.985-1.219-1.211-1.22-1.132-.003-6.269-2.911-7.447-4.216-.738-.818-1.999-1.905-2.802-2.416-.803-.51-1.973-1.691-2.6-2.623-.931-1.384-1.494-1.786-3.072-2.187-1.062-.271-2.259-.789-2.66-1.152-.401-.362-.823-.506-.939-.319"/><path fill="#d7d0cc" d="M57.6 1.2c0 1.332-.274 1.395-5.282 1.212-4.32-.158-4.718.08-4.718 2.82V7.6l-3.9.047c-2.145.026-4.138.016-4.43-.024-.759-.103-1.71.789-1.639 1.538.034.352.04 1.269.014 2.039l-.047 1.4-3.836.076c-4.668.093-5.38.471-5.953 3.164-.396 1.867-.473 1.954-1.63 1.839-1.79-.18-3.379.542-3.379 1.535 0 .56.164.735.5.533.345-.207.331-.092-.045.371-.299.37-.447.927-.327 1.239.264.688-.925 1.812-1.641 1.553-.283-.102-.812.056-1.177.352-.468.379-.575.391-.363.038.202-.336.027-.5-.533-.5-.993 0-1.715 1.589-1.535 3.379.115 1.157.028 1.234-1.839 1.63-2.693.573-3.071 1.285-3.164 5.953l-.076 3.836-1.4.04c-3.912.113-3.493-.599-3.561 6.062L7.6 47.6H5.232c-2.74 0-2.978.398-2.82 4.718.183 5.008.12 5.282-1.212 5.282H0V326h1.214c1.348 0 2.012-1.132 3.332-5.674.364-1.251 1.251-3.051 1.972-4 1.538-2.025 1.977-3.095 2.909-7.09.517-2.22 1.029-3.338 2.038-4.455.741-.82 1.685-2.472 2.097-3.671 1.052-3.056 1.773-4.328 3.24-5.71.701-.66 1.806-2.249 2.457-3.531.673-1.325 1.663-2.606 2.295-2.968.611-.351 1.546-1.459 2.078-2.463.625-1.177 1.53-2.138 2.552-2.708.872-.485 2.05-1.568 2.618-2.406.569-.838 1.836-1.961 2.816-2.496.98-.534 1.946-1.244 2.145-1.578.878-1.463 2.446-2.388 5.788-3.413 1.97-.604 3.911-1.464 4.315-1.91 1.523-1.685 3.188-2.22 10.534-3.387.99-.157 6.75-.298 12.8-.313l11-.027 3.407-1.886c3.096-1.714 3.901-1.965 8.8-2.745 3.846-.612 6.027-1.179 7.603-1.974 3.01-1.519 4.252-1.807 12.796-2.959 4.8-.647 8.077-1.295 9.312-1.841 1.048-.464 3.204-1.114 4.791-1.445 3.071-.64 6.31-2.358 7.643-4.053.44-.559 1.98-1.55 3.424-2.204 1.443-.653 3.289-1.751 4.103-2.44a85.122 85.122 0 0 1 2.742-2.218c.695-.531 1.583-1.701 1.973-2.6.39-.899 1.199-2.085 1.797-2.635.599-.55 1.514-1.837 2.035-2.86.52-1.022 1.593-2.392 2.382-3.043 1.832-1.509 2.487-4.114 2.815-11.188.655-14.109 4.384-17.614 7.351-6.907.627 2.265 1.134 3.217 2.315 4.349.831.797 1.814 2.027 2.183 2.733.37.706 1.388 1.786 2.263 2.4.874.614 1.861 1.566 2.193 2.116.331.55 1.376 1.45 2.322 2 .946.55 2.454 1.765 3.351 2.7 1.102 1.148 1.97 1.7 2.675 1.7 1.367 0 5.436 2.137 6.798 3.571.637.67 1.695 1.238 2.6 1.396 3.112.542 4.526 1.672 4.526 3.618 0 .839 4.879.951 7.837.179 2.387-.623 2.531-.613 7 .49 8.194 2.022 9.491 1.665 13.51-3.711 5.712-7.641 6.043-15.26 1.041-23.943-1.097-1.904-.757-6.658.852-11.905.792-2.582 1.683-5.823 1.981-7.202.297-1.378.64-2.668.762-2.866.122-.198-1.198-.833-2.934-1.411-1.736-.578-3.492-1.426-3.903-1.884-.41-.458-2.065-1.46-3.677-2.228-4.934-2.35-5.73-4.074-6.46-13.983-.52-7.065-.401-6.788-3.144-7.309-1.246-.236-2.913-.605-3.705-.819-1.557-.421-7.809-4.382-10.124-6.415-1.283-1.127-1.929-1.329-6.388-2.001-2.728-.412-5.655-1.014-6.504-1.339-4.618-1.767-6.329-1.984-8.872-1.125-2.182.737-2.575.758-4.726.256l-2.346-.548-1.582 1.578-1.583 1.578.483 2.335c.63 3.05.603 8.565-.054 11.088-.481 1.845-.449 2.177.407 4.292.671 1.654.929 3.085.929 5.142 0 2.573.099 2.928 1.011 3.646 2.904 2.284 2.697 6.357-.364 7.172-.634.169-1.754.963-2.488 1.765-2.516 2.747-4.232-.166-1.77-3.004 1.278-1.474.988-2.304-1.689-4.832-3.046-2.877-3.346-2.896-5.862-.381-2.448 2.448-2.285 2.448-5.416-.013-2.269-1.782-2.69-2.342-3.692-4.9-.784-2.003-1.651-3.387-2.83-4.519-1.541-1.478-3.693-5.58-3.704-7.06-.002-.279-.726-1.647-1.61-3.04-1.901-2.997-2.612-6.532-1.783-8.867 1.161-3.272 3.088-6.756 4.395-7.944.771-.702 1.402-1.449 1.402-1.66 0-.211.86-.82 1.912-1.353 3.025-1.533 3.234-2.327 1.546-5.88-2.163-4.552-2.722-7.035-2.86-12.702-.067-2.784-.341-5.962-.608-7.062-.567-2.338-3.334-11.816-4.379-15-.397-1.21-.845-3.28-.995-4.6-.15-1.32-.563-3.48-.917-4.8-.475-1.773-.65-4.334-.671-9.8-.03-7.952.129-8.71 2.358-11.2.493-.55 1.649-3.228 2.571-5.951 2.41-7.124 6.551-12.208 12.103-14.86 4.087-1.952 5.701-3.049 8.445-5.74C158.739 44.082 165.033 40 166.79 40c.462 0 7.82-4.908 11.21-7.477 2.595-1.967 3.592-2.382 7.536-3.136 1.627-.312 3.709-1.006 4.625-1.543 1.212-.71 2.534-1.047 4.852-1.235 1.753-.142 3.907-.413 4.787-.602.88-.189 2.86-.464 4.4-.612 1.54-.148 3.874-.537 5.186-.865 11.182-2.796 27.194-1.784 33.214 2.097 1.1.71 3.204 1.68 4.676 2.156 1.472.477 3.785 1.583 5.14 2.459 1.355.876 3.829 2.038 5.497 2.582 1.703.556 3.923 1.659 5.06 2.515 1.115.838 3.335 2.022 4.934 2.63 1.599.609 3.623 1.704 4.497 2.434.874.731 2.446 1.638 3.493 2.017 3.468 1.254 5.337 2.26 5.956 3.206.337.513 1.273 1.151 2.08 1.417 2.61.859 4.743 2.5 6.702 5.157 1.055 1.43 2.758 3.508 3.785 4.617 1.028 1.109 2.109 2.683 2.404 3.498.294.815.852 1.582 1.238 1.705 1.179.374 2.686 2.505 3.322 4.699.332 1.145 1.352 3.552 2.267 5.349l1.664 3.268.392 7.732c.859 16.94.557 19.859-2.3 22.229-1.059.879-1.544 1.814-2.392 4.605-.675 2.218-1.584 4.182-2.482 5.359-3.572 4.68-4.414 14.131-2.055 23.069 1.005 3.807.799 3.701 8.7 4.493 10.889 1.09 15.821 3.918 15.744 9.026-.03 1.953-1.725 5.713-2.755 6.108-.888.341-2.038 3.086-2.531 6.043-.69 4.138-1.501 6.298-3.036 8.091-.755.882-1.54 2.351-1.745 3.265-.864 3.841-6.127 8.8-9.373 8.83-1.451.013-3.482-1.327-3.482-2.298 0-.505 1.664-1.991 3.846-3.434 1.6-1.058 2.076-1.691 3.046-4.054.675-1.644 1.693-3.295 2.468-4 2.234-2.034 2.307-2.374 1.819-8.486-.494-6.178-.567-6.348-2.902-6.716-3.276-.518-4.717-1.138-5.964-2.567-2.136-2.449-2.463-2.578-4.667-1.846-2.707.899-3.188 2.235-3.719 10.337-.759 11.568.152 16.99 3.298 19.638 1.048.881 1.191 1.274 1.278 3.493l.097 2.501-2.287 1.526c-3.092 2.062-3.075 2.011-3.725 11.431-.657 9.526-.898 10.772-2.793 14.419-.763 1.468-1.785 4.099-2.272 5.845-.536 1.925-1.385 3.832-2.158 4.843-1.728 2.265-2.356 6.031-1.994 11.961.541 8.858-.672 17.685-2.859 20.811-.611.874-1.742 2.764-2.512 4.199-.803 1.496-1.931 2.951-2.644 3.41-.685.441-1.644 1.492-2.133 2.338-.65 1.124-1.461 1.789-3.019 2.478-2.775 1.227-2.81 1.323-1.51 4.057l1.106 2.328 4.242 1.4c2.333.77 4.885 1.895 5.672 2.5 1.913 1.469 2.885 1.8 6.704 2.279 4.37.548 6.136 1.128 7.68 2.523 1.803 1.629 2.322 1.781 9.215 2.698 6.938.923 8.18 1.25 10.687 2.816 1.894 1.183 2.375 1.248 16.349 2.197 4.608.313 7.006 1.003 8.516 2.449.716.686 2.557 1.569 4.843 2.323 3.153 1.039 3.821 1.418 4.615 2.615.665 1.003 1.496 1.594 2.932 2.086 2.763.945 4.359 2.001 5.872 3.883.708.882 2.083 2.15 3.054 2.818.971.668 1.868 1.538 1.994 1.933.125.395 1.157 1.25 2.294 1.899 1.195.684 2.597 1.939 3.327 2.981.694.99 1.71 2.019 2.258 2.286 1.141.556 2.278 1.725 2.91 2.991.24.479 1.246 1.344 2.236 1.922a7.285 7.285 0 0 1 2.8 2.906c.55 1.021 1.72 2.553 2.6 3.403.88.851 2.206 2.39 2.947 3.419.74 1.03 1.497 1.873 1.681 1.873.641 0 2.885 3.717 3.351 5.551.415 1.631.703 1.972 2.443 2.895 2.55 1.353 3.373 2.725 3.376 5.627.002 2.519.739 3.217 2.435 2.309.475-.254.757-.289.626-.077-.131.212.162.365.651.34 1.089-.055 1.225-.862 1.442-8.545.046-1.612.11-1.7 1.248-1.7h1.2V58h-2.664l.117-4.615c.066-2.551-.037-4.518-.23-4.399-.192.118-.254-.145-.139-.585.225-.86-.812-1.165-1.296-.382-.177.287-.437.272-.821-.047-.309-.256-1.013-.38-1.565-.275-1.102.211-1.09.284-1.078-6.778.005-2.806-.329-3.271-2.331-3.246-2.767.035-2.659.143-2.506-2.505.077-1.337-.004-2.343-.181-2.234-.176.109-.253-.509-.171-1.373.189-1.983-.761-3.561-2.144-3.561-.545 0-.991.18-.991.4 0 .22-.292.4-.649.4-.531 0-.559-.109-.151-.6.415-.5.361-.6-.326-.6-.705 0-.794-.187-.617-1.3.293-1.837-.426-3.5-1.514-3.5-.482 0-.741.135-.576.3.165.165.465.3.666.3.202 0 .352.16.333.355-.019.196.206.508.5.694.294.186.352.342.13.345-.222.003-.906-.46-1.52-1.029-.645-.598-1.374-.936-1.726-.801-.817.313-1.812-.737-1.491-1.575.142-.368.047-.8-.21-.959-.257-.159-.544-.685-.637-1.17-.097-.501-.004-.778.215-.643.213.131.29.393.173.583-.117.19-.03.458.193.596.226.139.407-.12.407-.582 0-1.043-1.701-1.758-3.5-1.471-1.113.177-1.3.088-1.3-.617 0-.687-.1-.741-.6-.326-.491.408-.6.38-.6-.151 0-.357.18-.649.4-.649.22 0 .4-.446.4-.991 0-1.383-1.578-2.333-3.561-2.144-.864.082-1.482.005-1.373-.171.109-.177-.897-.258-2.234-.181l-2.432.14-.061-1.226c-.034-.675-.079-1.767-.1-2.427-.043-1.328.331-1.261-7.684-1.368-2.386-.031-2.44-.056-2.252-1.034.105-.552-.019-1.256-.275-1.565-.319-.384-.334-.644-.047-.821.783-.484.478-1.521-.382-1.296-.455.119-.698.044-.563-.174.145-.236-.977-.35-2.899-.296-5.912.165-6.137.119-6.137-1.246V0H57.6v1.2m312.3 12.45c-.055.248.15.541.456.652.372.135.451.033.238-.312-.204-.329-.158-.415.127-.239.244.151.331.568.194.927-.181.472-.104.562.279.326.355-.22.434-.173.24.141-.324.524-2.665-1.109-2.358-1.645.269-.471.935-.35.824.15m15.058 15.218c-.193.313-.073.385.364.217.359-.137.776-.05.927.194.176.285.09.331-.239.127-.345-.213-.447-.134-.312.238.111.306.405.511.652.456.479-.106.611.405.209.808-.315.314-2.143-1.81-1.899-2.206.103-.166.277-.302.387-.302.11 0 .07.211-.089.468M198.362 84.281c-.724.112-1.318.668-1.963 1.84-.508.923-1.875 3.119-3.037 4.879-1.33 2.015-2.514 4.459-3.197 6.6-.596 1.87-1.312 3.76-1.591 4.2-.419.663-.375 1.211.259 3.2.421 1.32 1.061 3.987 1.422 5.926.418 2.249 1.017 4.058 1.651 4.993.808 1.19 1.005 1.994 1.045 4.266l.049 2.801-2.575.324c-3.156.398-4.453-.061-5.711-2.017-.503-.783-1.179-1.834-1.504-2.336-.419-.65-1.343-1.089-3.2-1.522l-2.61-.609-3.378 1.687a26.003 26.003 0 0 0-6.2 4.34c-1.552 1.459-3.676 3.053-4.719 3.542-2.258 1.06-2.265 1.96-.037 4.58.737.867 1.26 1.857 1.163 2.2-.863 3.035-.477 4.536 1.461 5.677 1.039.612 2.405 1.689 3.034 2.394 1.445 1.617 2.515 1.785 14.727 2.318 7.824.341 9.953.573 13.8 1.507 5.091 1.234 9.545 1.483 11.284.629.624-.306 3.225-1.092 5.78-1.746 4.342-1.112 4.78-1.317 6.696-3.129 1.824-1.725 2.401-2.017 5.22-2.636 1.743-.382 3.894-1.115 4.78-1.628.9-.521 2.667-1.053 4-1.205 1.314-.149 2.839-.576 3.389-.948.55-.372 1.712-.953 2.582-1.291 1.434-.556 1.661-.85 2.425-3.137l.842-2.523-.977-2.429c-.639-1.587-1.516-2.892-2.535-3.768-.857-.737-1.831-1.869-2.165-2.515-.334-.646-1.455-1.702-2.49-2.347-1.035-.645-2.692-2.008-3.682-3.029-2.019-2.083-4.355-3.766-6.31-4.55-3.986-1.596-5.509-5.027-5.046-11.361.18-2.452.333-4.638.341-4.858.029-.783-4.162-2.499-8.837-3.618-4.283-1.024-4.988-1.324-7.202-3.059-2.533-1.986-3.419-2.194-6.984-1.642m-46.787 52.566c-.778 1.453.297 2.133 2.15 1.358 1.78-.743 1.794-.82.295-1.595-1.558-.805-1.905-.772-2.445.237m-9.314 19.339c-.342.892-.263 6.135.112 7.414.323 1.1.532.231 1.009-4.2.236-2.188-.598-4.578-1.121-3.214m109.221 5.323c-1.137 1.257-1.371 5.908-.325 6.468 1.267.678 1.5.328 1.776-2.664.371-4.039-.106-5.29-1.451-3.804m-5.222 10.277c-.853.647-.56 1.414.54 1.414.921 0 1.284-.517.959-1.364-.296-.77-.538-.778-1.499-.05m15.689 4.437c-.332.332-1.483.822-2.557 1.09l-1.952.487-.987 3a469.974 469.974 0 0 1-1.361 4.083c-.266.769-.893 1.281-2.165 1.766-2.359.901-1.701 1.195 3.273 1.463 2.2.119 4.532.422 5.182.673 2.566.993 3.663-3.925 2.175-9.753-.965-3.782-.845-3.573-1.608-2.809m-94.127 21.012c.516.835-.43 1.154-2.034.685l-1.588-.464 1.2-.28c1.807-.423 2.128-.416 2.422.059"/><path fill="#80513e" d="M221.1 27.087c-2.199.333-1.205 1.062 4.409 3.235 1.631.632 2.401.733 3.398.447.708-.203 1.861-.369 2.561-.369 2.405 0 3.867-2.913 1.682-3.35-1.337-.267-10.221-.241-12.05.037m3.5 7.446c-5.955 2.16-6.685 3.055-3.31 4.057 5.073 1.506 13.587-.114 11.681-2.224-2.263-2.504-4.919-3.085-8.371-1.833m24.2 2.82c0 .084.978.632 2.173 1.216 1.953.956 2.24 1.264 2.831 3.043.497 1.495 1.187 2.431 2.827 3.832l2.169 1.853v2.49c0 3.23-.878 4.296-2.493 3.026-2.719-2.139-11.675-3.047-16.275-1.65-3.725 1.131-3.652 1.242 3.035 4.608 8.738 4.399 13.005 8.055 16.271 13.943 1.437 2.59 1.331 3.84-.565 6.686-.42.629-.739 2.159-.862 4.126-.236 3.799-.996 5.041-3.547 5.798-7.349 2.182-9.141 3.771-8.567 7.599.592 3.943 5.174 8.805 7.294 7.739 2.096-1.054 4.499-1.609 4.801-1.109.267.441 1.54 1.213 3.704 2.245 1.436.685 2.329 4.494 1.829 7.804l-.302 2.001 1.883.915c1.036.503 3.165 1.076 4.73 1.273 1.566.196 2.908.542 2.984.768.075.226 1.339 1.258 2.808 2.292 1.47 1.035 3.601 2.661 4.736 3.615 2.696 2.265 3.259 2.03 5.22-2.175 1.024-2.197 2.09-2.991 5.488-4.092 1.904-.616 3.336-2.229 4.498-5.066.479-1.168 1.937-3.431 3.24-5.028 4.05-4.965 4.686-7.336 3.46-12.905-1.091-4.955-1.767-9.539-1.769-12-.004-5.167-1.871-11.729-3.984-14-.818-.88-1.895-2.32-2.393-3.2-.497-.88-1.52-2.111-2.272-2.736-.753-.625-1.622-1.615-1.932-2.2-.31-.585-.982-1.455-1.492-1.934-3.641-3.412-5.584-4.882-7.289-5.515-1.079-.401-2.609-1.312-3.4-2.026-.792-.713-2.609-1.786-4.039-2.382-1.43-.597-4.58-2.036-7-3.199-2.42-1.163-4.892-2.228-5.493-2.367-.601-.139-1.715-.8-2.477-1.468-1.793-1.575-9.83-3.062-9.83-1.82m-54.4 1.242c-3.527.66-8.985 2.841-10.55 4.215-1.549 1.36-5.52 1.661-8.872.672l-2.022-.596-3.139 1.531c-1.848.901-3.977 2.347-5.178 3.518-1.121 1.092-3.209 2.568-4.639 3.278-1.43.71-3.218 1.831-3.973 2.491-.755.66-2.825 1.881-4.6 2.714-8.578 4.026-15.027 15.169-15.027 25.963v5.057l1.746 2.657c1.41 2.148 1.799 3.143 2.026 5.182.323 2.9.844 3.89 3.239 6.15 1.305 1.231 1.892 2.203 2.413 3.995 1.114 3.835 1.166 3.879 4.148 3.568 2.866-.3 7.662-4.009 9.815-7.59.529-.88 1.438-2.103 2.02-2.718 1.134-1.197 1.793-2.97 1.793-4.822 0-1.401 2.063-5.831 3.191-6.852.806-.729.845-.724 1.916.262 2.928 2.698 3.564 2.806 5.615.953 2.019-1.824 3.551-4.984 4.082-8.423.685-4.427 3.187-8.585 4.566-7.587 3.89 2.815 4.386 3.064 6.867 3.451l2.609.406 1.923-1.735c2.474-2.232 2.361-2.855-1.73-9.51l-1.336-2.175.737-1.212c1.144-1.881 1.326-4.193.549-6.964-1.524-5.431-.127-8.303 4.998-10.277 3.885-1.497 3.821-1.422 2.854-3.316-.822-1.612-2.236-2.931-3.03-2.827-.226.03-1.581.273-3.011.541m21.321 15.395c-4.379 1.961-3.481 5.739 1.615 6.797 1.48.307 2.497.812 3.279 1.629 1.526 1.592 5.57 1.066 4.242-.552-.209-.255-.683-1.364-1.053-2.464-.59-1.754-1.032-2.252-3.6-4.053l-2.928-2.053-1.555.696m-40.786 2.526c3.443-.056 5.633.083 6.328.4l1.063.484-.805 2.6c-.582 1.881-1.319 3.164-2.663 4.637-2.21 2.423-5.774 6.526-6.062 6.979-.112.176-.703.446-1.314.599-1.192.299-2.005 1.538-2.484 3.785-.5 2.346-1.4 2.546-3.598.8-1.934-1.537-3.353-1.541-7.32-.018-1.694.65-4.127 1.386-5.406 1.634-2.372.461-3.868 1.86-3.873 3.622-.003 1.469-1.439 2.13-2.843 1.309-.702-.411-1.257-.927-1.234-1.147.024-.22.159-1.326.301-2.458.319-2.555-.006-4.108-1.242-5.929-.766-1.128-.834-1.413-.34-1.413 1.016 0 2.861-2.159 3.328-3.893.254-.943.845-1.888 1.414-2.26.538-.353 1.435-1.421 1.994-2.375 1.117-1.906 2.035-2.499 4.371-2.823.852-.118 1.871-.506 2.263-.861.795-.719 1.426-.482 4.365 1.642l1.377.995 1.281-2.312c.704-1.272 1.658-2.79 2.119-3.373.462-.583.947-1.341 1.079-1.684.207-.539.405-.503 1.438.259 1.11.82 1.586.879 6.463.801m12.824 1.15c-.243.394-2.354.432-3.72.066-.874-.234-.766-.356 1.2-1.355l2.161-1.097.283 1.026c.156.564.19 1.176.076 1.36m85.999 4.407c.585 1.662-.705 3.48-1.779 2.508-1.154-1.045-1.348-2.131-.54-3.024.926-1.023 1.85-.818 2.319.516m15.202 4.288c2.052 1.725 2.117 1.872 2.331 5.304.116 1.862.476 3.914.8 4.56.324.646.804 2.522 1.068 4.167.264 1.646.944 4.029 1.512 5.295 1.471 3.278.898 7.169-1.356 9.209-.729.659-.9.658-3.394-.034-3.066-.85-4.542-.399-6.241 1.91-1.306 1.774-1.524 1.38-1.81-3.257-.14-2.263-.369-4.951-.511-5.973-.25-1.816-.229-1.863.946-2.121 1.838-.404 2.934-4.038 3.324-11.021.166-2.97.399-5.67.517-6 .118-.33.425-1.41.683-2.4.415-1.596.519-1.714.919-1.039.249.419.794 1.049 1.212 1.4m-10.396 10.07c.57.677 1.036 1.644 1.036 2.149 0 .506.27 1.685.6 2.62 1.121 3.176.878 4.066-1.069 3.923-1.843-.136-1.557.348-3.333-5.649-.687-2.32-.686-2.328.226-3.3 1.165-1.239 1.292-1.227 2.54.257m-1.77 60.177c-1.617 1.947-4.37 2.739-9.817 2.821-4.69.071-5.425.182-7.2 1.081-2.422 1.226-6.239 1.807-13.577 2.067-12.952.458-16.613 1.145-26.008 4.878-5.977 2.375-18.81 3.024-25.28 1.279l-5.773-1.559c-6.596-1.783-29.747-2.142-32.891-.51l-1.553.806 1.153.811c1.04.732 2.131.851 11.186 1.215 10.687.43 10.911.476 13.42 2.718 1.698 1.518 4.547 2.265 11.346 2.977 5.238.548 7.801 1.218 11.652 3.045 1.579.75 3.14 1.363 3.468 1.363 1.933 0 4.325 5.224 4.854 10.6.518 5.268 1.111 5.314 1.636.127.582-5.737 2.569-9.797 5.883-12.016.565-.379 1.56-1.611 2.211-2.737 1.378-2.388 1.398-2.363 2.309 2.927.687 3.988 1.729 5.595 4.906 7.568.747.465 1.677 1.582 2.146 2.58 1.007 2.141 1.385 2.411 2.265 1.614.374-.338 1.554-.849 2.622-1.135 1.597-.427 2.158-.839 3.166-2.323.674-.993 2.089-2.761 3.146-3.928 1.056-1.168 2.657-3.541 3.559-5.274 1.699-3.266 2.862-4.003 6.316-4.003 3.014 0 5.747 6.656 4.659 11.347-.959 4.133.244 8.879 1.59 6.276.741-1.432 3.718-4.823 4.235-4.823.798 0 5.224 3.331 5.726 4.309.308.6.879 2.261 1.268 3.691.866 3.177 1.574 4.678 2.853 6.047.612.655 1.278 2.23 1.777 4.2l.797 3.153-2.522 2.317c-2.54 2.334-6.617 5.201-9.455 6.649-2.43 1.24-3.912 4.881-3.395 8.342l.383 2.562-1.227.888c-.676.488-1.913 1.237-2.75 1.665-.837.427-2.457 1.544-3.6 2.481-2.383 1.954-3.957 2.583-8.579 3.428-4.605.841-5.988 1.624-7.425 4.201l-1.189 2.134 1.019 1.019c1.004 1.004 1.059 1.012 3.758.531 3.826-.682 3.888-.705 5.603-2.078 2.355-1.887 10.723-.954 12.23 1.363 1.649 2.537 1.7 3.88.2 5.337-2.593 2.519-4.769 8.43-4.299 11.68.718 4.964.53 7.454-.756 10.001-.638 1.264-1.292 3.356-1.453 4.649a11.692 11.692 0 0 1-1.512 4.391c-.67 1.122-1.441 2.416-1.714 2.876-.458.773-.69.81-3.07.491-2.32-.311-2.786-.246-4.732.66-2.914 1.357-6.468.538-8.032-1.849-1.247-1.903-6.702-4.25-12.354-5.314-6.036-1.136-7.287-1.626-13.573-5.323-.77-.453-1.994-.947-2.72-1.098-2.124-.443-6.167-2.205-7.359-3.208-.605-.509-1.78-1.146-2.611-1.415-2.172-.702-4.526-1.935-5.91-3.095-.66-.553-2.37-1.529-3.8-2.169-1.43-.64-3.23-1.767-4-2.505-.77-.737-2.617-1.911-4.105-2.607-2.596-1.215-10.836-8.064-11.367-9.447-.116-.302-1.08-1.187-2.141-1.967-1.432-1.051-2.109-1.905-2.619-3.304a89.974 89.974 0 0 0-1.455-3.686l-.767-1.8-.545 1c-.3.55-.655 2.35-.789 4-.135 1.65-.536 5.333-.892 8.185l-.646 5.184-1.686 1.816c-.927.998-2.096 2.625-2.596 3.615-2.131 4.214-7.789 10.076-11.376 11.786-1.549.738-3.356 1.912-4.016 2.608-3.715 3.923-8.079 5.681-17.418 7.017-3.86.552-8.54 1.426-10.4 1.943-7.257 2.013-9.968 2.669-14.922 3.607-4.168.79-5.569 1.239-7.413 2.378-3.753 2.316-6.231 2.674-18.186 2.625-11.944-.049-14.66.321-19.261 2.625-1.54.771-4.304 1.938-6.141 2.594-2.291.817-3.876 1.684-5.043 2.759-.935.863-2.132 1.785-2.658 2.05-.885.445-1.823 1.304-6.758 6.191-2.744 2.717-5.018 5.465-5.809 7.017-.393.77-1.656 2.776-2.808 4.458-1.151 1.683-2.312 3.753-2.58 4.6-.268.848-1.17 2.712-2.005 4.142-.835 1.43-2.094 4.4-2.797 6.6-1.045 3.268-4.005 9.427-7.786 16.2-.37.663-.972 1.042-1.786 1.125L0 330.851v6.349h1.129c.955 0 1.268-.294 2.025-1.9.913-1.937 1.062-2.198 2.45-4.3.436-.66.8-1.56.809-2 .022-1.124.781-2.329 2.227-3.536 1.419-1.184 2.267-3.194 3.138-7.441.409-1.992 1.065-3.66 1.981-5.041.795-1.197 1.892-3.807 2.613-6.219 1.019-3.404 1.468-4.33 2.484-5.126.682-.534 1.503-1.616 1.824-2.404 1.363-3.351 1.891-4.433 2.163-4.433.608 0 3.94-4.902 4.172-6.137.208-1.111.516-1.393 2.159-1.976 1.407-.5 2.195-1.104 2.971-2.276.581-.877 1.761-1.955 2.623-2.394 2.178-1.112 4.902-3.004 5.71-3.966.373-.445 1.453-.997 2.4-1.228 4.011-.978 7.458-2.186 9.445-3.309 2.012-1.136 9.844-2.352 10.91-1.694.788.487 14.803.164 18.112-.417 3.92-.689 4.53-.94 6.855-2.824 1.618-1.311 4.174-1.936 11.4-2.788 4.331-.511 8.23-1.468 10-2.454 2.088-1.164 4.246-1.572 11.343-2.147 7.281-.59 8.823-.981 10.155-2.573.606-.725 1.846-1.694 2.756-2.153.91-.458 2.206-1.529 2.879-2.379.785-.992 1.788-1.715 2.8-2.018 3.669-1.099 5.237-2.07 6.528-4.041.702-1.072 1.861-2.222 2.591-2.57 1.347-.643 2.711-2.827 3.729-5.97.27-.833 1.012-1.9 1.649-2.371 1.548-1.145 2.264-3.276 2.791-8.301.506-4.833.605-5.096 1.587-4.207.401.363 1.598.881 2.66 1.152 1.578.401 2.141.803 3.072 2.187.627.932 1.797 2.113 2.6 2.623.803.511 2.064 1.598 2.802 2.416 1.178 1.305 6.315 4.213 7.447 4.216.226.001.771.55 1.211 1.22.508.773 1.833 1.712 3.627 2.569 1.554.743 3.054 1.626 3.334 1.962.839 1.012 3.696 2.506 6.133 3.207 1.587.456 2.758 1.127 3.8 2.176 1.061 1.068 2.452 1.856 4.706 2.664 1.76.631 3.792 1.654 4.515 2.275.723.62 2.201 1.576 3.283 2.125 1.083.549 2.652 1.693 3.486 2.543 1 1.019 2.52 1.933 4.464 2.684 1.622.626 3.602 1.66 4.4 2.297.799.637 2.352 1.614 3.452 2.171 1.1.558 2.416 1.339 2.924 1.737.509.397 1.949.924 3.2 1.171 1.252.247 3.563 1.002 5.135 1.678l2.86 1.229 5.134-.483c5.052-.475 5.161-.506 6.854-1.954.946-.81 2.287-1.832 2.98-2.272.693-.44 2.16-1.663 3.261-2.718 2.347-2.248 3.181-2.165 5.648.566 1.841 2.038 1.864 3.349.071 4.098-6.027 2.518-2.94 10.284 5.123 12.89 1.766.57 4.227 1.714 5.469 2.543 1.812 1.207 3.001 1.64 6 2.183 5.396.975 6.781 1.396 8.241 2.497 1.939 1.464 3.783 2.121 8.418 3 2.783.528 4.892 1.191 6.288 1.979 2.589 1.461 5.989 2.18 12.994 2.746 8.413.68 12.077 1.221 13.647 2.015 1.769.896 7.715 2.801 8.74 2.801 1.29 0 4.384 1.53 5.725 2.832.708.687 2.417 1.775 3.796 2.416 1.407.655 3.139 1.866 3.946 2.76.792.875 1.678 1.592 1.97 1.592.293 0 1.307.906 2.254 2.013.947 1.107 2.457 2.447 3.356 2.978.898.531 3.418 2.74 5.6 4.909 2.181 2.17 5.183 4.993 6.67 6.275 1.687 1.453 3.396 3.44 4.542 5.278 1.01 1.621 1.984 2.947 2.165 2.947.589 0 2.758 2.414 3.417 3.803.354.746 1.229 1.803 1.944 2.349.864.659 1.586 1.772 2.152 3.32 1.05 2.868 2.954 5.235 4.846 6.023.787.328 1.925.948 2.53 1.378 1.359.965 1.371.73.084-1.619-.645-1.178-1.702-2.291-2.9-3.054-1.44-.917-2.216-1.832-3.296-3.886-.777-1.478-1.867-3.188-2.423-3.8-.555-.613-1.771-2.149-2.701-3.414-.929-1.265-1.859-2.3-2.067-2.3-.207 0-1.45-1.575-2.762-3.5-1.311-1.925-3.132-4.04-4.045-4.7-.913-.66-3.272-2.865-5.243-4.901-1.971-2.035-4.61-4.462-5.865-5.394-1.255-.932-3.992-3.288-6.082-5.237-2.123-1.979-4.821-4.061-6.112-4.717-1.271-.646-2.981-1.773-3.8-2.504-1.325-1.185-6.099-3.447-7.273-3.447-.247 0-1.607-.542-3.023-1.204-3.304-1.545-6.382-2.224-12.592-2.778-8.622-.769-11.263-1.232-16.09-2.819-2.58-.848-6.18-1.836-8-2.196-4.593-.906-5.786-1.312-8.31-2.828-1.506-.905-3.461-1.586-6.2-2.161-5.149-1.081-6.302-1.465-8.55-2.846-1.017-.625-3.352-1.685-5.188-2.356-4.272-1.561-4.642-1.84-6.483-4.881l-1.532-2.531.877-.883c.482-.486 2.122-1.566 3.646-2.4 1.956-1.072 2.99-1.928 3.521-2.917.711-1.326 2.566-3.324 3.388-3.65.356-.141 3.321-7.091 3.321-7.784 0-.177.434-.782.964-1.344 1.174-1.245 2.099-13.492 1.63-21.584l-.269-4.638 2.068-6.168c3.335-9.943 4.767-17.876 4.287-23.75-.415-5.079-.063-6.189 2.188-6.904 2.508-.796 2.929-4.303.909-7.578-.272-.44-.629-1.25-.794-1.8-.165-.55-.708-1.647-1.208-2.439-2.477-3.925-2.924-9.932-.975-13.099.66-1.073 1.2-2.143 1.2-2.377 0-.235.446-.778.991-1.207 1.4-1.101 1.876-2.561 2.16-6.636.468-6.688 7.543-9.17 13.405-4.703 1.054.804 3.287 2.181 4.961 3.061 3.755 1.973 4.498 2.945 4.85 6.345.244 2.363.833 4.158.833 2.541 0-2.832.96-4.937 3.253-7.135 3.52-3.374 3.264-3.927-3.053-6.592-5.682-2.398-8.772-3.092-12.567-2.822-4.029.287-5.496-.454-7.089-3.583-1.279-2.513-4.754-4.939-7.086-4.949-.629-.003-2.159-.26-3.4-.571-4.205-1.054-5.469-1.143-6.064-.426m8.697 8.87c3.434 1.203 3.849 1.928 1.659 2.897-2.329 1.03-2.633 1.417-5.074 6.46-1.515 3.13-2.618 4.801-4.223 6.4-2.678 2.668-3.766 4.709-4.271 8.015-.789 5.165-1.233 5.517-1.698 1.346-.621-5.563-2.886-8.642-6.918-9.402-3.249-.613-4.581-1.674-5.764-4.589-.492-1.213-1.05-2.205-1.239-2.205-.19 0-.64-.451-1.001-1.002-1.118-1.706-.355-2.044 5.251-2.329 4.35-.22 5.376-.411 7.703-1.43 1.476-.647 3.224-1.303 3.884-1.457.66-.153 2.063-.822 3.118-1.484 3.84-2.411 4.786-2.546 8.573-1.22m-45.957 1.983c.513.137.771.36.572.494-.391.265-2.106 3.696-2.106 4.214 0 .174.417.644.926 1.044.51.401 1.257 1.462 1.661 2.359l.736 1.63-1.974 1.899-1.973 1.899-2.663-.668c-2.416-.607-6.571-2.607-6.195-2.983.084-.085 2.028-1.129 4.318-2.321 3.925-2.042 4.161-2.235 4.109-3.363-.07-1.504-1.257-3.186-2.483-3.517-.705-.191-.805-.338-.4-.595.627-.397 4.114-.456 5.472-.092m-47.182 3.753c2.221.228 8.495.476 13.943.551 10.416.144 11.926.324 10.582 1.266-.417.293-1.518 2.07-2.445 3.95-1.47 2.981-2.432 4.199-2.432 3.077 0-.187-.486-.862-1.081-1.5-.595-.637-1.463-1.878-1.93-2.758l-.85-1.6-3.969-.287c-2.184-.158-7.156-.434-11.05-.613-7.581-.349-8.041-.462-6.922-1.698.843-.931.852-.932 6.154-.388m121.311.619 1.224.632-1.104 1.153-1.104 1.152-1.17-.985c-.644-.542-1.337-.985-1.54-.985-.796 0-.31-.755.731-1.135 1.511-.552 1.579-.548 2.963.168m-176.509.346c-.098.099-.104.954-.011 1.9.131 1.345.237 1.546.484.921.655-1.656.326-3.62-.473-2.821m13.746 14.519c-1.186.59-1.3.809-1.3 2.497 0 1.756-.055 1.848-1.1 1.827-.954-.019-1.117.15-1.225 1.278-.069.715-.033 1.3.081 1.3.833 0 2.304-1.101 2.497-1.869.182-.727.509-.932 1.49-.934 1.038-.002 1.444-.296 2.334-1.687l1.076-1.685-1.076-.71c-1.269-.837-1.132-.836-2.777-.017m93.918 14.869c-2.808 1.139-2.473 2.036.956 2.564 2.725.42 5.424-1.861 3.452-2.917-1.09-.583-2.347-.483-4.408.353M233 186c-1.76.403-3.646.902-4.191 1.109l-.991.376 1.391.705c2.453 1.242 5.682 3.953 6.085 5.107 1.036 2.973 2.265 2.392 4.665-2.207 3.028-5.801 1.388-7.001-6.959-5.09m32.8 31.247 1.6.058-2.069.399c-2.349.452-4.945.062-3.531-.531.44-.185 1.16-.257 1.6-.16.44.097 1.52.202 2.4.234m7.572-.092c.507.82-.99 1.346-3.052 1.072-2.63-.349-3.254-.737-1.72-1.071 1.83-.398 4.526-.399 4.772-.001M.5 341.876c.385.1 1.015.1 1.4 0 .385-.101.07-.183-.7-.183s-1.085.082-.7.183m47.1 52.21c0 .711.087.745.7.276.385-.295.752-.564.816-.598.064-.034-.251-.158-.7-.276-.623-.163-.816-.021-.816.598"/><path fill="#9c6d56" d="M342.093 1.2c0 .77.082 1.085.183.7.1-.385.1-1.015 0-1.4-.101-.385-.183-.07-.183.7M220.162 25.669C217 26.104 212 27.305 212 27.631c0 .414 2.851 2.473 5.012 3.619 2.351 1.247 2.445 1.112-2.612 3.75-4.821 2.515-4.796 2.488-3.495 3.711 3.286 3.087 18.309 4.17 25.627 1.847.423-.134 1.859.228 3.253.821 2.651 1.126 2.847 1.56 1.821 4.021-.183.44-.434 1.115-.557 1.5-.141.442-.634.703-1.336.709-3.471.027-7.015 3.616-5.991 6.066.545 1.306 2.748 3.525 3.498 3.525.198 0 .631.525.963 1.167.678 1.31 1.719 1.725 6.217 2.475 4.067.678 4.888 1.237 4.574 3.11-.494 2.938-.342 2.821-3.328 2.571-4.888-.41-7.51 1.181-2.82 1.712 2.523.285 4.374 1.332 4.374 2.473 0 .357.448 1.296.996 2.086 2.681 3.869 1.253 8.825-2.987 10.371-1.377.502-3.481 1.66-4.676 2.574l-2.172 1.661.264 2c.145 1.1.303 2.342.35 2.759.047.418-.071 1.754-.261 2.969-.622 3.963.759 8.014 4.455 13.072 3.945 5.4 3.837 5.299 6.299 5.85 3.215.72 6.736 3.141 7.367 5.066.609 1.858 2.034 3.754 3.977 5.293l1.501 1.19 2.578-1.207c2.478-1.159 2.634-1.182 4.031-.599.799.334 1.812.607 2.251.607 2.642 0 4.056 2.959 2.976 6.229-1.206 3.65-3.953 3.648-9.182-.008l-2.53-1.768-1.119 1.359c-.615.747-1.531 1.898-2.035 2.558-1.181 1.542-7.185 4.902-10.283 5.754-4.617 1.269-12.33 2.676-14.671 2.676-1.542 0-2.885.267-3.873.772-.832.424-2.76 1.162-4.284 1.64-1.525.478-4.703 1.564-7.064 2.414-8.982 3.234-17.636 3.656-24.974 1.219-6.875-2.285-32.765-3.802-38.055-2.231-2.563.761-4.238 2.106-3.858 3.098.405 1.053 3.549 2.745 5.06 2.723 14.535-.208 20.124.166 21.163 1.418 1.1 1.325 4.297 2.499 8.581 3.149 9.184 1.395 10.636 1.772 13.076 3.402 1.375.918 3.235 1.74 4.603 2.033 1.263.271 2.591.64 2.952.819 1.042.516 2.64 5.769 3.147 10.339.589 5.305 1.105 6.607 2.752 6.936 1.126.225 1.246.393 1.258 1.759.022 2.677 2.147 4.412 4.287 3.502 2.679-1.14.777-5.392-2.412-5.392h-1.373l-.236-3.1c-.45-5.901 1.173-13.702 2.85-13.699 2.806.007 7.21 4.954 7.409 8.323.176 2.971 1.171 5.295 2.248 5.25 2.436-.102 5.47-1.149 6.943-2.396.896-.758 2.115-1.679 2.71-2.048.595-.368 1.668-1.538 2.386-2.6.717-1.061 2.245-2.931 3.396-4.154 1.15-1.223 2.66-3.351 3.355-4.728 1.209-2.395 3.884-4.426 5.854-4.444 2.193-.02 3.638 5.11 2.983 10.596-.967 8.111-.927 7.944-1.972 8.19-.582.138-1.525 1.086-2.403 2.418-1.306 1.979-1.678 2.263-3.842 2.924-4.423 1.352-5.737 1.909-7.142 3.025-1.108.881-2.253 1.255-5.526 1.804-11.698 1.965-13.217 2.724-8.817 4.405 1.576.602 3.578 1.745 4.486 2.561l1.639 1.473-.665 2.2c-.868 2.874-.557 6.992.618 8.167l.804.804 1.904-2.029c1.047-1.116 2.764-2.525 3.816-3.131 1.98-1.141 2.785-2.257 3.277-4.542.629-2.915 3.334-7.543 4.711-8.059 2.965-1.109 4.155-1.706 5.178-2.597 1.386-1.206 3.121-5.321 3.121-7.401 0-1.606.006-1.612 1.553-1.612 1.328 0 1.771-.248 3.044-1.7 3.746-4.274 3.331-3.987 4.646-3.211 2.512 1.484 3.838 3.361 4.742 6.711.474 1.76 1.283 3.92 1.798 4.801.514.881 1.065 2.643 1.224 3.917l.289 2.316-3.312 3.083c-5.561 5.177-7.452 5.846-8.711 3.084-.997-2.188-6.578-3.416-8.49-1.868-1.724 1.396-.543 2.743 3.747 4.269 2.964 1.055 2.957 1.12-.848 7.798-1.115 1.956-1.878 2.798-3.082 3.4l-1.6.8.118 2.46.118 2.46-1.718.614c-.945.338-2.888.727-4.318.866-6.191.598-7.558 1.429-9.587 5.833-2.993 6.492 2.289 8.15 12.495 3.922 3.452-1.429 8.716 1.865 7.669 4.8a45.228 45.228 0 0 0-.985 3.297c-.32 1.265-1.018 2.409-2.2 3.607l-1.73 1.756.801 2.374c1.575 4.666.596 8.42-3.445 13.198-2.739 3.241-3.276 3.661-5.818 4.554-1.21.425-2.47.883-2.8 1.018-.411.169-.941-.295-1.682-1.47-1.274-2.02-2.475-3.206-4.093-4.044l-1.175-.608 1.054-.401c1.413-.537 2.137-1.739 2.915-4.841.357-1.427 1.066-3.225 1.575-3.995.985-1.492 1.731-5.752 1.078-6.156-.207-.128-1.053.305-1.879.962-.827.657-1.895 1.194-2.373 1.194-.646 0-1.215.613-2.207 2.378-.736 1.307-2.291 3.2-3.456 4.206-2.091 1.805-2.121 1.863-2.238 4.308-.119 2.478-.119 2.478-1.519 2.775-2.343.496-10.363-.362-11.777-1.26-3.015-1.914-4.573-2.524-7.753-3.039-2.163-.35-3.924-.894-4.836-1.494-2.087-1.373-4.787-2.609-6.757-3.094-.956-.235-2.403-1.038-3.253-1.806-.842-.76-3.036-2.083-4.877-2.94-1.841-.856-3.562-1.915-3.824-2.353-.263-.438-1.793-1.422-3.4-2.187-6.016-2.862-15.821-12.516-17.697-17.426-.602-1.575-1.409-3.253-1.794-3.728l-.7-.865-.896 1.85c-.692 1.43-.977 3.009-1.255 6.962-.622 8.829-1.07 10.811-2.895 12.791-.868.941-2.142 2.602-2.832 3.691-4.137 6.529-7.128 9.65-11.238 11.723-1.329.67-3.211 1.917-4.182 2.772-4.427 3.893-8.338 5.321-18.896 6.899-7.164 1.071-10.252 1.763-14.338 3.217-1.43.509-4.94 1.316-7.8 1.795-4.288.718-5.831 1.178-8.8 2.625-5.179 2.524-5.72 2.606-17.096 2.586-12.77-.023-17.425.635-20.96 2.96-.849.559-3.164 1.58-5.144 2.27-2.324.81-4.096 1.717-5 2.557-.77.716-2.03 1.72-2.8 2.231-3.522 2.338-11.664 10.933-13.153 13.885-.469.929-1.392 2.304-2.052 3.056-.66.752-2.014 3.119-3.008 5.26-.993 2.142-2.162 4.345-2.596 4.897-.434.552-1.324 2.735-1.978 4.851-2.02 6.539-7.61 17.017-9.16 17.172-1.036.104-1.253.299-1.253 1.126 0 1.4 2.196 1.218 3.015-.251 3.781-6.773 6.741-12.932 7.786-16.2.703-2.2 1.962-5.17 2.797-6.6.835-1.43 1.737-3.294 2.005-4.142.268-.847 1.429-2.917 2.58-4.6 1.152-1.682 2.415-3.688 2.808-4.458.791-1.552 3.065-4.3 5.809-7.017 4.935-4.887 5.873-5.746 6.758-6.191.526-.265 1.723-1.187 2.658-2.05 1.167-1.075 2.752-1.942 5.043-2.759 1.837-.656 4.601-1.823 6.141-2.594 4.601-2.304 7.317-2.674 19.261-2.625 11.955.049 14.433-.309 18.186-2.625 1.844-1.139 3.245-1.588 7.413-2.378 4.954-.938 7.665-1.594 14.922-3.607 1.86-.517 6.54-1.391 10.4-1.943 9.339-1.336 13.703-3.094 17.418-7.017.66-.696 2.467-1.87 4.016-2.608 3.587-1.71 9.245-7.572 11.376-11.786.5-.99 1.669-2.617 2.596-3.615l1.686-1.816.646-5.184c.356-2.852.757-6.535.892-8.185.134-1.65.489-3.45.789-4l.545-1 .767 1.8c.422.99 1.077 2.649 1.455 3.686.51 1.399 1.187 2.253 2.619 3.304 1.061.78 2.025 1.665 2.141 1.967.531 1.383 8.771 8.232 11.367 9.447 1.488.696 3.335 1.87 4.105 2.607.77.738 2.57 1.865 4 2.505 1.43.64 3.14 1.616 3.8 2.169 1.384 1.16 3.738 2.393 5.91 3.095.831.269 2.006.906 2.611 1.415 1.192 1.003 5.235 2.765 7.359 3.208.726.151 1.95.645 2.72 1.098 6.286 3.697 7.537 4.187 13.573 5.323 5.652 1.064 11.107 3.411 12.354 5.314 1.564 2.387 5.118 3.206 8.032 1.849 1.946-.906 2.412-.971 4.732-.66 2.38.319 2.612.282 3.07-.491.273-.46 1.044-1.754 1.714-2.876a11.692 11.692 0 0 0 1.512-4.391c.161-1.293.815-3.385 1.453-4.649 1.286-2.547 1.474-5.037.756-10.001-.47-3.25 1.706-9.161 4.299-11.68 1.5-1.457 1.449-2.8-.2-5.337-1.507-2.317-9.875-3.25-12.23-1.363-1.715 1.373-1.777 1.396-5.603 2.078-2.699.481-2.754.473-3.758-.531l-1.019-1.019 1.189-2.134c1.437-2.577 2.82-3.36 7.425-4.201 4.622-.845 6.196-1.474 8.579-3.428 1.143-.937 2.763-2.054 3.6-2.481.837-.428 2.074-1.177 2.75-1.665l1.227-.888-.383-2.562c-.517-3.461.965-7.102 3.395-8.342 2.838-1.448 6.915-4.315 9.455-6.649l2.522-2.317-.797-3.153c-.499-1.97-1.165-3.545-1.777-4.2-1.279-1.369-1.987-2.87-2.853-6.047-.389-1.43-.96-3.091-1.268-3.691-.502-.978-4.928-4.309-5.726-4.309-.517 0-3.494 3.391-4.235 4.823-1.346 2.603-2.549-2.143-1.59-6.276 1.088-4.691-1.645-11.347-4.659-11.347-3.454 0-4.617.737-6.316 4.003-.902 1.733-2.503 4.106-3.559 5.274-1.057 1.167-2.472 2.935-3.146 3.928-1.008 1.484-1.569 1.896-3.166 2.323-1.068.286-2.248.797-2.622 1.135-.88.797-1.258.527-2.265-1.614-.469-.998-1.399-2.115-2.146-2.58-3.177-1.973-4.219-3.58-4.906-7.568-.911-5.29-.931-5.315-2.309-2.927-.651 1.126-1.646 2.358-2.211 2.737-3.314 2.219-5.301 6.279-5.883 12.016-.525 5.187-1.118 5.141-1.636-.127-.529-5.376-2.921-10.6-4.854-10.6-.328 0-1.889-.613-3.468-1.363-3.851-1.827-6.414-2.497-11.652-3.045-6.799-.712-9.648-1.459-11.346-2.977-2.509-2.242-2.733-2.288-13.42-2.718-9.055-.364-10.146-.483-11.186-1.215l-1.153-.811 1.553-.806c3.259-1.691 26.334-1.264 33.3.616l5.772 1.559c6.064 1.637 19.093.911 24.872-1.385 9.395-3.733 13.056-4.42 26.008-4.878 7.338-.26 11.155-.841 13.577-2.067 1.776-.9 2.509-1.009 7.2-1.08 5.514-.083 7.39-.609 9.694-2.717.855-.783.929-.785 4.2-.096 1.831.385 4.15.817 5.153.96 3.18.453 5.991 2.367 7.326 4.988 1.587 3.117 3.058 3.859 7.083 3.572 3.795-.27 6.885.424 12.567 2.822 6.317 2.665 6.573 3.218 3.053 6.592-2.293 2.198-3.253 4.303-3.253 7.135 0 1.617-.589-.178-.833-2.541-.352-3.4-1.095-4.372-4.85-6.345-1.674-.88-3.907-2.257-4.961-3.061-2.77-2.111-4.281-2.468-7.548-1.783-4.506.944-5.55 2.101-5.857 6.486-.284 4.075-.76 5.535-2.16 6.636-.545.429-.991.972-.991 1.207 0 .234-.54 1.304-1.2 2.377-1.949 3.167-1.502 9.174.975 13.099.5.792 1.043 1.889 1.208 2.439.165.55.522 1.36.794 1.8 2.02 3.275 1.599 6.782-.909 7.578-2.251.715-2.603 1.825-2.188 6.904.48 5.874-.952 13.807-4.287 23.75l-2.068 6.168.269 4.638c.469 8.092-.456 20.339-1.63 21.584-.53.562-.964 1.167-.964 1.344 0 .693-2.965 7.643-3.321 7.784-.822.326-2.677 2.324-3.388 3.65-.531.989-1.565 1.845-3.521 2.917-1.524.834-3.164 1.914-3.646 2.4l-.877.883 1.532 2.531c1.841 3.041 2.211 3.32 6.483 4.881 1.836.671 4.171 1.731 5.188 2.356 2.248 1.381 3.401 1.765 8.55 2.846 2.739.575 4.694 1.256 6.2 2.161 2.524 1.516 3.717 1.922 8.31 2.828 1.82.36 5.42 1.348 8 2.196 4.827 1.587 7.468 2.05 16.09 2.819 6.21.554 9.288 1.233 12.592 2.778 1.416.662 2.776 1.204 3.023 1.204 1.174 0 5.948 2.262 7.273 3.447.819.731 2.529 1.858 3.8 2.504 1.291.656 3.989 2.738 6.112 4.717 2.09 1.949 4.827 4.305 6.082 5.237 1.255.932 3.894 3.359 5.865 5.394 1.971 2.036 4.33 4.241 5.243 4.901.913.66 2.734 2.775 4.045 4.7 1.312 1.925 2.555 3.5 2.762 3.5.208 0 1.138 1.035 2.067 2.3.93 1.265 2.146 2.801 2.701 3.414.556.612 1.646 2.322 2.423 3.8 1.08 2.054 1.856 2.969 3.296 3.886 1.037.66 2.199 1.778 2.583 2.484.89 1.637 1.153 1.395.531-.489-.36-1.092-1.033-1.811-2.683-2.866-1.838-1.177-2.385-1.815-3.317-3.87-.614-1.353-1.516-2.821-2.006-3.26-.489-.439-1.594-1.834-2.456-3.1-.862-1.266-2.003-2.587-2.536-2.936-.533-.349-1.859-2.022-2.947-3.719-1.098-1.71-2.663-3.559-3.516-4.152-.845-.588-3.26-2.843-5.365-5.011-2.105-2.169-5.219-4.971-6.919-6.229-1.7-1.257-3.188-2.539-3.307-2.848-.372-.969-6.653-5.848-8.746-6.793-1.1-.497-2.45-1.395-3-1.996-1.225-1.339-2.961-2.236-6.532-3.375-1.503-.479-3.393-1.304-4.2-1.832-1.693-1.108-6.388-2.051-12.068-2.425-6.447-.425-11.882-1.36-14.917-2.568-1.586-.631-5.403-1.64-8.483-2.243-5.29-1.034-6.721-1.537-9.615-3.375-.668-.424-3.625-1.315-6.571-1.979-3.71-.837-5.823-1.531-6.875-2.26-.835-.579-3.362-1.751-5.615-2.606-4.594-1.742-4.522-1.686-6.261-4.846l-1.263-2.294 1.5-.95a95.68 95.68 0 0 1 3.398-2.021c1.044-.59 2.154-1.56 2.467-2.157.313-.596 1.297-1.789 2.186-2.65 1.075-1.041 2.488-3.319 4.216-6.8l2.599-5.234.399-7.4c.219-4.07.385-9.793.369-12.719l-.031-5.319 1.628-3.281c.895-1.804 2.009-4.721 2.477-6.481.467-1.76 1.494-5.09 2.282-7.4 1.29-3.78 1.466-4.82 1.766-10.4.401-7.491.376-7.375 2.18-9.997l1.447-2.104-.683-2.25c-1.997-6.585-2.776-17.631-1.612-22.849.368-1.65.847-4.53 1.065-6.4.472-4.064 1.139-4.951 4.373-5.812 3.527-.938 3.661-.895 8.755 2.831.759.556 2.138 1.201 3.063 1.434 3.138.79 4.387 2.433 4.674 6.147.411 5.321 1.545 7.795 2.27 4.951 1.49-5.845 2.091-7.292 3.688-8.873 4.088-4.047 3.304-5.914-3.722-8.862-4.993-2.095-7.412-2.61-12.26-2.614-4.451-.003-5.508-.918-7.44-6.443-.738-2.113-1.735-4.371-2.213-5.018-1.612-2.18-1.907-5.931-.739-9.383 2.177-6.429 2.567-7.202 4.795-9.492 1.831-1.881 2.347-2.742 3.036-5.066.641-2.162 1.287-3.312 2.835-5.049 2.956-3.316 3.467-6.794 2.245-15.276a183.383 183.383 0 0 1-.959-8.275c-.51-5.761-2.788-13.247-4.627-15.2-.725-.77-2.066-2.521-2.981-3.89-.915-1.37-1.997-2.67-2.405-2.888-.408-.218-1.319-1.297-2.025-2.398-1.669-2.601-4.811-5.383-7.798-6.905-1.311-.667-3.021-1.723-3.8-2.345-.78-.622-2.922-1.772-4.76-2.555-1.839-.784-3.845-1.782-4.458-2.219-.613-.437-2.585-1.423-4.381-2.192-1.797-.769-4.242-2.097-5.435-2.951-1.308-.937-2.845-1.657-3.876-1.816-2.75-.424-5.603-1.463-7.108-2.588-.769-.575-2.928-1.537-4.796-2.138-2.716-.873-3.687-1.407-4.848-2.665-2.202-2.384-11.726-3.779-18.994-2.781m12.988 1.381c2.185.437.723 3.35-1.682 3.35-.7 0-1.853.166-2.561.369-.997.286-1.767.185-3.398-.447-5.614-2.173-6.608-2.902-4.409-3.235 1.829-.278 10.713-.304 12.05-.037m-2.837 7.507c2.203 1.117 3.599 2.496 3.058 3.021-1.995 1.936-13.176 1.956-14.368.027-.28-.454 2.333-1.888 5.597-3.072 3.093-1.122 3.457-1.12 5.713.024m-38.713.095c-.55.368-1.54 1.171-2.2 1.784-1.75 1.627-6.341 3.164-9.449 3.164-3.304 0-7.62.912-9.035 1.909-.614.433-1.913 1.19-2.887 1.683-.974.493-2.684 1.755-3.8 2.804-1.116 1.049-3.199 2.494-4.629 3.21-1.43.717-3.433 2.051-4.45 2.965-1.077.967-3.084 2.156-4.8 2.845-4.483 1.797-8.694 5.943-10.956 10.784-.925 1.98-2.631 5.58-3.791 8l-2.11 4.4.213 4.8c.138 3.078.459 5.446.896 6.6 2 5.28 2.299 6.466 2.545 10.079.287 4.233.851 5.262 3.928 7.166.798.494 1.451 1.343 1.748 2.272.714 2.236 2.73 5.9 3.8 6.905 2.251 2.114 9.139-1.884 13.793-8.006 1.376-1.81 2.531-2.928 3.174-3.071 4.529-1.01 4.323-.72 5.223-7.345.491-3.612 1.211-4.794 2.931-4.806 3.425-.024 8.414-7.081 8.933-12.636.13-1.393.57-3.081.978-3.752l.741-1.219 1.502.948c.826.522 3.118 1.793 5.093 2.826l3.59 1.879.806-1.12c.443-.616 1.522-1.904 2.399-2.862l1.593-1.742 4.011.222c2.205.122 4.554.335 5.22.474 1.022.213 1.769-.116 4.8-2.116 1.974-1.303 4.49-2.873 5.59-3.49a66.084 66.084 0 0 0 3.482-2.106c1.041-.691 2.374-1.084 4.472-1.32 1.644-.184 3.716-.706 4.604-1.159.889-.453 2.504-1.014 3.589-1.247 3.954-.848 3.966-3.974.014-3.974-1.583 0-12.761-7.225-12.761-8.249 0-.318.45-1.466 1-2.551 2.698-5.325-4.064-8.323-8.841-3.92-2.008 1.851-2.65 3.593-3.363 9.12-.34 2.64-.691 3.758-1.57 5-.623.88-1.433 2.32-1.8 3.2-1.285 3.077-2.433 3.86-5.211 3.557-4.862-.531-6.516-2.436-5.678-6.541.34-1.668.405-3.286.193-4.77-.195-1.361-.147-3.372.122-5.104.512-3.296.299-3.117 5.942-4.961C206.096 43.579 206 43.68 206 40.17v-2.932l-1.748-1.202c-1.381-.95-2.327-1.251-4.5-1.432-1.514-.126-3.742-.317-4.952-.425-1.64-.146-2.454-.025-3.2.473m64.325 2.927c.727.208 1.944.925 2.705 1.594.762.668 1.876 1.329 2.477 1.468s3.073 1.204 5.493 2.367c2.42 1.163 5.57 2.602 7 3.199 1.43.596 3.247 1.669 4.039 2.382.791.714 2.321 1.625 3.4 2.026 1.705.633 3.648 2.103 7.289 5.515.51.479 1.182 1.349 1.492 1.934.31.585 1.179 1.575 1.932 2.2.752.625 1.775 1.856 2.272 2.736.498.88 1.575 2.32 2.393 3.2 2.113 2.271 3.98 8.833 3.984 14 .002 2.461.678 7.045 1.769 12 1.226 5.569.59 7.94-3.46 12.905-1.303 1.597-2.761 3.86-3.24 5.028-1.162 2.837-2.594 4.45-4.498 5.066-3.398 1.101-4.464 1.895-5.488 4.092-1.961 4.205-2.524 4.44-5.22 2.175-1.135-.954-3.266-2.58-4.736-3.615-1.469-1.034-2.733-2.066-2.808-2.292-.076-.226-1.418-.572-2.984-.768-1.565-.197-3.694-.77-4.73-1.273l-1.883-.915.302-2.001c.5-3.31-.393-7.119-1.829-7.804-2.164-1.032-3.437-1.804-3.704-2.245-.302-.5-2.705.055-4.801 1.109-2.12 1.066-6.702-3.796-7.294-7.739-.574-3.828 1.218-5.417 8.567-7.599 2.551-.757 3.311-1.999 3.547-5.798.123-1.967.442-3.497.862-4.126 1.896-2.846 2.002-4.096.565-6.686-3.266-5.888-7.533-9.544-16.271-13.943-6.687-3.366-6.76-3.477-3.035-4.608 4.6-1.397 13.556-.489 16.275 1.65 1.615 1.27 2.493.204 2.493-3.026v-2.49l-2.169-1.853c-1.64-1.401-2.33-2.337-2.827-3.832-.591-1.779-.878-2.087-2.831-3.043-1.195-.584-2.173-1.132-2.173-1.216 0-.321 5.867-.135 7.125.226m-57.209 1.047c.492.345 1.268 1.359 1.725 2.255.967 1.894 1.031 1.819-2.854 3.316-5.125 1.974-6.522 4.846-4.998 10.277.777 2.771.595 5.083-.549 6.964l-.737 1.212 1.336 2.175c4.091 6.655 4.204 7.278 1.73 9.51l-1.923 1.735-2.609-.406c-2.481-.387-2.977-.636-6.867-3.451-1.379-.998-3.881 3.16-4.566 7.587-.531 3.439-2.063 6.599-4.082 8.423-2.051 1.853-2.687 1.745-5.615-.953-1.071-.986-1.11-.991-1.916-.262-1.128 1.021-3.191 5.451-3.191 6.852 0 1.852-.659 3.625-1.793 4.822-.582.615-1.491 1.838-2.02 2.718-2.153 3.581-6.949 7.29-9.815 7.59-2.982.311-3.034.267-4.148-3.568-.521-1.792-1.108-2.764-2.413-3.995-2.395-2.26-2.916-3.25-3.239-6.15-.227-2.039-.616-3.034-2.026-5.182l-1.746-2.657v-5.057c0-10.794 6.449-21.937 15.027-25.963 1.775-.833 3.845-2.054 4.6-2.714.755-.66 2.543-1.781 3.973-2.491 1.43-.71 3.518-2.186 4.639-3.278 1.201-1.171 3.33-2.617 5.178-3.518l3.139-1.531 2.022.596c3.352.989 7.323.688 8.872-.672 2.054-1.804 8.622-4.107 13.561-4.756.226-.03.813.228 1.305.572m49.848 7.574c.722.55 1.565 1.023 1.874 1.05.309.028-.248.183-1.238.346-.99.163-2.599.185-3.575.049l-1.775-.248 1.306-1.098c1.598-1.345 1.768-1.35 3.408-.099m-24.76 13.2c.37 1.1.844 2.209 1.053 2.464 1.328 1.618-2.716 2.144-4.242.552-.782-.817-1.799-1.322-3.279-1.629-5.096-1.058-5.994-4.836-1.615-6.797l1.555-.696 2.928 2.053c2.568 1.801 3.01 2.299 3.6 4.053M398.1 57.876c.385.1 1.015.1 1.4 0 .385-.101.07-.183-.7-.183s-1.085.082-.7.183M252.8 68.024c0 .857-.825 1.005-2.026.362-1.094-.585-.96-1.109.326-1.274 1.422-.182 1.7-.033 1.7.912m-17.705 3.025c-1.268.996-3.031 2.879-3.918 4.184l-1.611 2.374 1.091.415c2.127.809 2.627.469 4.146-2.813.15-.326.849-.709 1.552-.853 2.582-.528 3.503-2.728 1.95-4.656-.566-.702-.638-.672-3.21 1.349m-98.921 80.35c-1.537 2.014-1.342 10.008.321 13.201l1.042 2 .714-1.6c.509-1.14.686-2.406.617-4.4-.055-1.587.19-3.977.565-5.516.971-3.991-1.175-6.418-3.259-3.685m1.798 1.701c-.055 2.162-.646 2.859-.829.979-.093-.946-.087-1.801.011-1.9.479-.479.843-.07.818.921m10.571 11.478c-2.158.939-4.079 6.979-3.175 9.981 1.126 3.741 1.455 3.979 5.176 3.734 4.38-.289 4.675-.43 4.22-2.019-.708-2.467-.436-3.812 1.281-6.34l1.645-2.423-.773-1.055c-1.647-2.247-5.526-3.117-8.374-1.878m5.134 2.137 1.076.71-1.076 1.685c-.89 1.391-1.296 1.685-2.334 1.687-.981.002-1.308.207-1.49.934-.193.768-1.664 1.869-2.497 1.869-.114 0-.15-.585-.081-1.3.108-1.128.271-1.297 1.225-1.278 1.045.021 1.1-.071 1.1-1.827 0-1.688.114-1.907 1.3-2.497 1.645-.819 1.508-.82 2.777.017m95.549 14.499c1.972 1.056-.727 3.337-3.452 2.917-3.429-.528-3.764-1.425-.956-2.564 2.061-.836 3.318-.936 4.408-.353m-8.922 4.239c1.671.448 1.578 1.952-.345 5.637-2.4 4.599-3.629 5.18-4.665 2.207-.403-1.154-3.632-3.865-6.085-5.107l-1.391-.705.991-.376c3.439-1.306 9.528-2.183 11.495-1.656M398.1 342.276c.385.1 1.015.1 1.4 0 .385-.101.07-.183-.7-.183s-1.085.082-.7.183"/><path fill="#b58670" d="M368.833 13.7c.092.055.662.536 1.267 1.07.605.533 1.1.855 1.1.715 0-.389-1.7-1.885-2.142-1.885-.215 0-.316.045-.225.1M214.8 23.408c-1.65.281-4.08.783-5.4 1.115-1.32.332-3.66.724-5.2.872-1.54.148-3.52.423-4.4.612-.88.189-3.034.46-4.787.602-2.318.188-3.64.525-4.852 1.235-.916.537-2.998 1.231-4.625 1.543-3.944.754-4.941 1.169-7.536 3.136C174.61 35.092 167.252 40 166.79 40c-1.757 0-8.051 4.082-11.485 7.449-2.744 2.691-4.358 3.788-8.445 5.74-5.552 2.652-9.693 7.736-12.103 14.86-.922 2.723-2.078 5.401-2.571 5.951-2.229 2.49-2.388 3.248-2.358 11.2.021 5.466.196 8.027.671 9.8.354 1.32.767 3.48.917 4.8.15 1.32.598 3.39.995 4.6 1.045 3.184 3.812 12.662 4.379 15 .267 1.1.541 4.278.608 7.062.138 5.667.697 8.15 2.86 12.702 1.688 3.553 1.479 4.347-1.546 5.88-1.052.533-1.912 1.142-1.912 1.353 0 .211-.631.958-1.402 1.66-1.307 1.188-3.234 4.672-4.395 7.944-.829 2.335-.118 5.87 1.783 8.867.884 1.393 1.608 2.761 1.61 3.04.011 1.48 2.163 5.582 3.704 7.06 1.179 1.132 2.046 2.516 2.83 4.519 1.002 2.558 1.423 3.118 3.692 4.9 3.131 2.461 2.968 2.461 5.416.013 2.516-2.515 2.816-2.496 5.862.381 2.677 2.528 2.967 3.358 1.689 4.832-2.462 2.838-.746 5.751 1.77 3.004.734-.802 1.854-1.596 2.488-1.765 3.061-.815 3.268-4.888.364-7.172-.912-.718-1.011-1.073-1.011-3.646 0-2.057-.258-3.488-.929-5.142-.856-2.115-.888-2.447-.407-4.292.657-2.523.684-8.038.054-11.088l-.483-2.335 1.583-1.578 1.582-1.578 2.346.548c2.151.502 2.544.481 4.726-.256 2.543-.859 4.254-.642 8.872 1.125.849.325 3.776.927 6.504 1.339 4.459.672 5.105.874 6.388 2.001 2.315 2.033 8.567 5.994 10.124 6.415.792.214 2.459.583 3.705.819 2.743.521 2.624.244 3.144 7.309.73 9.909 1.526 11.633 6.46 13.983 1.612.768 3.267 1.77 3.677 2.228.411.458 2.167 1.306 3.903 1.884 1.736.578 3.056 1.213 2.934 1.411-.122.198-.465 1.488-.762 2.866-.298 1.379-1.189 4.62-1.981 7.202-1.609 5.247-1.949 10.001-.852 11.905 5.002 8.683 4.671 16.302-1.041 23.943-4.019 5.376-5.316 5.733-13.51 3.711-4.469-1.103-4.613-1.113-7-.49-2.958.772-7.837.66-7.837-.179 0-1.946-1.414-3.076-4.526-3.618-.905-.158-1.963-.726-2.6-1.396-1.362-1.434-5.431-3.571-6.798-3.571-.705 0-1.573-.552-2.675-1.7-.897-.935-2.405-2.15-3.351-2.7-.946-.55-1.991-1.45-2.322-2-.332-.55-1.319-1.502-2.193-2.116-.875-.614-1.893-1.694-2.263-2.4-.369-.706-1.352-1.936-2.183-2.733-1.181-1.132-1.688-2.084-2.315-4.349-2.967-10.707-6.696-7.202-7.351 6.907-.328 7.074-.983 9.679-2.815 11.188-.789.651-1.862 2.021-2.382 3.043-.521 1.023-1.436 2.31-2.035 2.86-.598.55-1.407 1.736-1.797 2.635-.39.899-1.278 2.069-1.973 2.6a85.122 85.122 0 0 0-2.742 2.218c-.814.689-2.66 1.787-4.103 2.44-1.444.654-2.984 1.645-3.424 2.204-1.333 1.695-4.572 3.413-7.643 4.053-1.587.331-3.743.981-4.791 1.445-1.235.546-4.512 1.194-9.312 1.841-8.544 1.152-9.786 1.44-12.796 2.959-1.576.795-3.757 1.362-7.603 1.974-4.899.78-5.704 1.031-8.8 2.745L78.2 268.2l-11 .027c-6.05.015-11.81.156-12.8.313-7.346 1.167-9.011 1.702-10.534 3.387-.404.446-2.345 1.306-4.315 1.91-3.342 1.025-4.91 1.95-5.788 3.413-.199.334-1.165 1.044-2.145 1.578-.98.535-2.247 1.658-2.816 2.496-.568.838-1.746 1.921-2.618 2.406-1.022.57-1.927 1.531-2.552 2.708-.532 1.004-1.467 2.112-2.078 2.463-.632.362-1.622 1.643-2.295 2.968-.651 1.282-1.756 2.871-2.457 3.531-1.467 1.382-2.188 2.654-3.24 5.71-.412 1.199-1.356 2.851-2.097 3.671-1.009 1.117-1.521 2.235-2.038 4.455-.932 3.995-1.371 5.065-2.909 7.09-.721.949-1.608 2.749-1.972 4C3.226 324.868 2.562 326 1.214 326 .089 326 0 326.105 0 327.425c0 5.392 7.265-5.682 10.413-15.872.654-2.116 1.544-4.299 1.978-4.851.434-.552 1.603-2.755 2.596-4.897.994-2.141 2.348-4.508 3.008-5.26.66-.752 1.583-2.127 2.052-3.056 1.489-2.952 9.631-11.547 13.153-13.885.77-.511 2.03-1.515 2.8-2.231.904-.84 2.676-1.747 5-2.557 1.98-.69 4.295-1.711 5.144-2.27 3.535-2.325 8.19-2.983 20.96-2.96 11.376.02 11.917-.062 17.096-2.586 2.969-1.447 4.512-1.907 8.8-2.625 2.86-.479 6.37-1.286 7.8-1.795 4.086-1.454 7.174-2.146 14.338-3.217 10.558-1.578 14.469-3.006 18.896-6.899.971-.855 2.853-2.102 4.182-2.772 4.11-2.073 7.101-5.194 11.238-11.723.69-1.089 1.964-2.75 2.832-3.691 1.825-1.98 2.273-3.962 2.895-12.791.278-3.953.563-5.532 1.255-6.962l.896-1.85.7.865c.385.475 1.192 2.153 1.794 3.728 1.876 4.91 11.681 14.564 17.697 17.426 1.607.765 3.137 1.749 3.4 2.187.262.438 1.983 1.497 3.824 2.353 1.841.857 4.035 2.18 4.877 2.94.85.768 2.297 1.571 3.253 1.806 1.97.485 4.67 1.721 6.757 3.094.912.6 2.673 1.144 4.836 1.494 3.18.515 4.738 1.125 7.753 3.039 1.414.898 9.434 1.756 11.777 1.26 1.4-.297 1.4-.297 1.519-2.775.117-2.445.147-2.503 2.238-4.308 1.165-1.006 2.72-2.899 3.456-4.206.992-1.765 1.561-2.378 2.207-2.378.478 0 1.546-.537 2.373-1.194.826-.657 1.672-1.09 1.879-.962.653.404-.093 4.664-1.078 6.156-.509.77-1.218 2.568-1.575 3.995-.778 3.102-1.502 4.304-2.915 4.841l-1.054.401 1.175.608c1.618.838 2.819 2.024 4.093 4.044.741 1.175 1.271 1.639 1.682 1.47.33-.135 1.59-.593 2.8-1.018 2.542-.893 3.079-1.313 5.818-4.554 4.041-4.778 5.02-8.532 3.445-13.198l-.801-2.374 1.73-1.756c1.182-1.198 1.88-2.342 2.2-3.607.259-1.019.702-2.502.985-3.297 1.047-2.935-4.217-6.229-7.669-4.8-10.206 4.228-15.488 2.57-12.495-3.922 2.029-4.404 3.396-5.235 9.587-5.833 1.43-.139 3.373-.528 4.318-.866l1.718-.614-.118-2.46-.118-2.46 1.6-.8c1.204-.602 1.967-1.444 3.082-3.4 3.805-6.678 3.812-6.743.848-7.798-4.29-1.526-5.471-2.873-3.747-4.269 1.912-1.548 7.493-.32 8.49 1.868 1.259 2.762 3.15 2.093 8.711-3.084l3.312-3.083-.289-2.316c-.159-1.274-.71-3.036-1.224-3.917-.515-.881-1.324-3.041-1.798-4.801-.904-3.35-2.23-5.227-4.742-6.711-1.315-.776-.9-1.063-4.646 3.211-1.273 1.452-1.716 1.7-3.044 1.7-1.547 0-1.553.006-1.553 1.612 0 2.08-1.735 6.195-3.121 7.401-1.023.891-2.213 1.488-5.178 2.597-1.377.516-4.082 5.144-4.711 8.059-.492 2.285-1.297 3.401-3.277 4.542-1.052.606-2.769 2.015-3.816 3.131l-1.904 2.029-.804-.804c-1.175-1.175-1.486-5.293-.618-8.167l.665-2.2-1.639-1.473c-.908-.816-2.91-1.959-4.486-2.561-4.4-1.681-2.881-2.44 8.817-4.405 3.273-.549 4.418-.923 5.526-1.804 1.405-1.116 2.719-1.673 7.142-3.025 2.164-.661 2.536-.945 3.842-2.924.878-1.332 1.821-2.28 2.403-2.418 1.045-.246 1.005-.079 1.972-8.19.655-5.486-.79-10.616-2.983-10.596-1.97.018-4.645 2.049-5.854 4.444-.695 1.377-2.205 3.505-3.355 4.728-1.151 1.223-2.679 3.093-3.396 4.154-.718 1.062-1.791 2.232-2.386 2.6-.595.369-1.814 1.29-2.71 2.048-1.473 1.247-4.507 2.294-6.943 2.396-1.077.045-2.072-2.279-2.248-5.25-.199-3.369-4.603-8.316-7.409-8.323-1.677-.003-3.3 7.798-2.85 13.699l.236 3.1h1.373c3.189 0 5.091 4.252 2.412 5.392-2.14.91-4.265-.825-4.287-3.502-.012-1.366-.132-1.534-1.258-1.759-1.647-.329-2.163-1.631-2.752-6.936-.507-4.57-2.105-9.823-3.147-10.339-.361-.179-1.689-.548-2.952-.819-1.368-.293-3.228-1.115-4.603-2.033-2.44-1.63-3.892-2.007-13.076-3.402-4.284-.65-7.481-1.824-8.581-3.149-1.039-1.252-6.628-1.626-21.163-1.418-1.511.022-4.655-1.67-5.06-2.723-.38-.992 1.295-2.337 3.858-3.098 5.29-1.571 31.18-.054 38.055 2.231 7.338 2.437 15.992 2.015 24.974-1.219 2.361-.85 5.539-1.936 7.064-2.414 1.524-.478 3.452-1.216 4.284-1.64.988-.505 2.331-.772 3.873-.772 2.341 0 10.054-1.407 14.671-2.676 3.098-.852 9.102-4.212 10.283-5.754.504-.66 1.42-1.811 2.035-2.558l1.119-1.359 2.53 1.768c5.229 3.656 7.976 3.658 9.182.008 1.08-3.27-.334-6.229-2.976-6.229-.439 0-1.452-.273-2.251-.607-1.397-.583-1.553-.56-4.031.599l-2.578 1.207-1.501-1.19c-1.943-1.539-3.368-3.435-3.977-5.293-.631-1.925-4.152-4.346-7.367-5.066-2.462-.551-2.354-.45-6.299-5.85-3.696-5.058-5.077-9.109-4.455-13.072.19-1.215.308-2.551.261-2.969-.047-.417-.205-1.659-.35-2.759l-.264-2 2.172-1.661c1.195-.914 3.299-2.072 4.676-2.574 4.24-1.546 5.668-6.502 2.987-10.371-.548-.79-.996-1.729-.996-2.086 0-1.141-1.851-2.188-4.374-2.473-4.69-.531-2.068-2.122 2.82-1.712 2.986.25 2.834.367 3.328-2.571.314-1.873-.507-2.432-4.574-3.11-4.498-.75-5.539-1.165-6.217-2.475-.332-.642-.765-1.167-.963-1.167-.75 0-2.953-2.219-3.498-3.525-1.024-2.45 2.52-6.039 5.991-6.066.702-.006 1.195-.267 1.336-.709.123-.385.374-1.06.557-1.5 1.026-2.461.83-2.895-1.821-4.021-1.394-.593-2.83-.955-3.253-.821-7.318 2.323-22.341 1.24-25.627-1.847-1.301-1.223-1.326-1.196 3.495-3.711 5.057-2.638 4.963-2.503 2.612-3.75-4.353-2.309-5.741-3.794-3.912-4.185.605-.13 2.45-.531 4.1-.893 7.706-1.688 19.418-.47 21.962 2.285 1.155 1.25 2.13 1.786 4.842 2.658 1.868.601 4.027 1.563 4.796 2.138 1.505 1.125 4.358 2.164 7.108 2.588 1.031.159 2.568.879 3.876 1.816 1.193.854 3.638 2.182 5.435 2.951 1.796.769 3.768 1.755 4.381 2.192.613.437 2.619 1.435 4.458 2.219 1.838.783 3.98 1.933 4.76 2.555.779.622 2.489 1.678 3.8 2.345 2.987 1.522 6.129 4.304 7.798 6.905.706 1.101 1.617 2.18 2.025 2.398.408.218 1.49 1.518 2.405 2.888.915 1.369 2.256 3.12 2.981 3.89 1.839 1.953 4.117 9.439 4.627 15.2.204 2.31.636 6.034.959 8.275 1.222 8.482.711 11.96-2.245 15.276-1.548 1.737-2.194 2.887-2.835 5.049-.689 2.324-1.205 3.185-3.036 5.066-2.228 2.29-2.618 3.063-4.795 9.492-1.168 3.452-.873 7.203.739 9.383.478.647 1.475 2.905 2.213 5.018 1.932 5.525 2.989 6.44 7.44 6.443 4.848.004 7.267.519 12.26 2.614 7.026 2.948 7.81 4.815 3.722 8.862-1.597 1.581-2.198 3.028-3.688 8.873-.725 2.844-1.859.37-2.27-4.951-.287-3.714-1.536-5.357-4.674-6.147-.925-.233-2.304-.878-3.063-1.434-5.094-3.726-5.228-3.769-8.755-2.831-3.234.861-3.901 1.748-4.373 5.812-.218 1.87-.697 4.75-1.065 6.4-1.164 5.218-.385 16.264 1.612 22.849l.683 2.25-1.447 2.104c-1.804 2.622-1.779 2.506-2.18 9.997-.3 5.58-.476 6.62-1.766 10.4-.788 2.31-1.815 5.64-2.282 7.4-.468 1.76-1.582 4.677-2.477 6.481l-1.628 3.281.031 5.319c.016 2.926-.15 8.649-.369 12.719l-.399 7.4-2.599 5.234c-1.728 3.481-3.141 5.759-4.216 6.8-.889.861-1.873 2.054-2.186 2.65-.313.597-1.423 1.567-2.467 2.157a95.68 95.68 0 0 0-3.398 2.021l-1.5.95 1.263 2.294c1.739 3.16 1.667 3.104 6.261 4.846 2.253.855 4.78 2.027 5.615 2.606 1.052.729 3.165 1.423 6.875 2.26 2.946.664 5.903 1.555 6.571 1.979 2.894 1.838 4.325 2.341 9.615 3.375 3.08.603 6.897 1.612 8.483 2.243 3.035 1.208 8.47 2.143 14.917 2.568 5.68.374 10.375 1.317 12.068 2.425.807.528 2.697 1.353 4.2 1.832 3.571 1.139 5.307 2.036 6.532 3.375.55.601 1.9 1.499 3 1.996 2.093.945 8.374 5.824 8.746 6.793.119.309 1.607 1.591 3.307 2.848 1.7 1.258 4.814 4.06 6.919 6.229 2.105 2.168 4.52 4.423 5.365 5.011.853.593 2.418 2.442 3.516 4.152 1.088 1.697 2.414 3.37 2.947 3.719.533.349 1.674 1.67 2.536 2.936.862 1.266 1.967 2.661 2.456 3.1.49.439 1.392 1.907 2.006 3.26.935 2.062 1.477 2.692 3.342 3.885 1.902 1.217 2.312 1.704 2.815 3.34l.589 1.916.026-2c.034-2.605-.86-4.034-3.348-5.354-1.74-.923-2.028-1.264-2.443-2.895-.466-1.834-2.71-5.551-3.351-5.551-.184 0-.941-.843-1.681-1.873-.741-1.029-2.067-2.568-2.947-3.419-.88-.85-2.05-2.382-2.6-3.403a7.285 7.285 0 0 0-2.8-2.906c-.99-.578-1.996-1.443-2.236-1.922-.632-1.266-1.769-2.435-2.91-2.991-.548-.267-1.564-1.296-2.258-2.286-.73-1.042-2.132-2.297-3.327-2.981-1.137-.649-2.169-1.504-2.294-1.899-.126-.395-1.023-1.265-1.994-1.933-.971-.668-2.346-1.936-3.054-2.818-1.513-1.882-3.109-2.938-5.872-3.883-1.436-.492-2.267-1.083-2.932-2.086-.794-1.197-1.462-1.576-4.615-2.615-2.286-.754-4.127-1.637-4.843-2.323-1.51-1.446-3.908-2.136-8.516-2.449-13.974-.949-14.455-1.014-16.349-2.197-2.507-1.566-3.749-1.893-10.687-2.816-6.893-.917-7.412-1.069-9.215-2.698-1.544-1.395-3.31-1.975-7.68-2.523-3.819-.479-4.791-.81-6.704-2.279-.787-.605-3.339-1.73-5.672-2.5l-4.242-1.4-1.106-2.328c-1.3-2.734-1.265-2.83 1.51-4.057 1.558-.689 2.369-1.354 3.019-2.478.489-.846 1.448-1.897 2.133-2.338.713-.459 1.841-1.914 2.644-3.41.77-1.435 1.901-3.325 2.512-4.199 2.187-3.126 3.4-11.953 2.859-20.811-.362-5.93.266-9.696 1.994-11.961.773-1.011 1.622-2.918 2.158-4.843.487-1.746 1.509-4.377 2.272-5.845 1.895-3.647 2.136-4.893 2.793-14.419.65-9.42.633-9.369 3.725-11.431l2.287-1.526-.097-2.501c-.087-2.219-.23-2.612-1.278-3.493-3.146-2.648-4.057-8.07-3.298-19.638.531-8.102 1.012-9.438 3.719-10.337 2.204-.732 2.531-.603 4.667 1.846 1.247 1.429 2.688 2.049 5.964 2.567 2.335.368 2.408.538 2.902 6.716.488 6.112.415 6.452-1.819 8.486-.775.705-1.793 2.356-2.468 4-.97 2.363-1.446 2.996-3.046 4.054-2.182 1.443-3.846 2.929-3.846 3.434 0 .971 2.031 2.311 3.482 2.298 3.246-.03 8.509-4.989 9.373-8.83.205-.914.99-2.383 1.745-3.265 1.535-1.793 2.346-3.953 3.036-8.091.493-2.957 1.643-5.702 2.531-6.043 1.03-.395 2.725-4.155 2.755-6.108.077-5.108-4.855-7.936-15.744-9.026-7.901-.792-7.695-.686-8.7-4.493-2.359-8.938-1.517-18.389 2.055-23.069.898-1.177 1.807-3.141 2.482-5.359.848-2.791 1.333-3.726 2.392-4.605 2.857-2.37 3.159-5.289 2.3-22.229l-.392-7.732-1.664-3.268c-.915-1.797-1.935-4.204-2.267-5.349-.636-2.194-2.143-4.325-3.322-4.699-.386-.123-.944-.89-1.238-1.705-.295-.815-1.376-2.389-2.404-3.498-1.027-1.109-2.73-3.187-3.785-4.617-1.959-2.657-4.092-4.298-6.702-5.157-.807-.266-1.743-.904-2.08-1.417-.619-.946-2.488-1.952-5.956-3.206-1.047-.379-2.619-1.286-3.493-2.017-.874-.73-2.898-1.825-4.497-2.434-1.599-.608-3.819-1.792-4.934-2.63-1.137-.856-3.357-1.959-5.06-2.515-1.668-.544-4.142-1.706-5.497-2.582-1.355-.876-3.668-1.982-5.14-2.459-1.472-.476-3.576-1.446-4.676-2.156-4.648-2.997-19.202-4.682-27.8-3.219m170.471 6.541c.511.63.986 1.097 1.057 1.037.239-.203-.909-1.77-1.449-1.977-.296-.114-.12.309.392.94m-185.519 4.655c2.173.181 3.119.482 4.5 1.432L206 37.238v2.932c0 3.51.096 3.409-4.806 5.011-5.643 1.844-5.43 1.665-5.942 4.961-.269 1.732-.317 3.743-.122 5.104.212 1.484.147 3.102-.193 4.77-1.431 7.013 8.113 9.629 10.889 2.984.367-.88 1.177-2.32 1.8-3.2.879-1.242 1.23-2.36 1.57-5 .713-5.527 1.355-7.269 3.363-9.12 4.777-4.403 11.539-1.405 8.841 3.92-.55 1.085-1 2.233-1 2.551 0 1.024 11.178 8.249 12.761 8.249 3.952 0 3.94 3.126-.014 3.974-1.085.233-2.7.794-3.589 1.247-.888.453-2.96.975-4.604 1.159-2.098.236-3.431.629-4.472 1.32A66.084 66.084 0 0 1 217 70.206c-1.1.617-3.616 2.187-5.59 3.49-3.031 2-3.778 2.329-4.8 2.116-.666-.139-3.015-.352-5.22-.474l-4.011-.222-1.593 1.742c-.877.958-1.956 2.246-2.399 2.862l-.806 1.12-3.59-1.879c-1.975-1.033-4.267-2.304-5.093-2.826l-1.502-.948-.741 1.219c-.408.671-.848 2.359-.978 3.752-.519 5.555-5.508 12.612-8.933 12.636-1.72.012-2.44 1.194-2.931 4.806-.9 6.625-.694 6.335-5.223 7.345-.643.143-1.798 1.261-3.174 3.071-4.654 6.122-11.542 10.12-13.793 8.006-1.07-1.005-3.086-4.669-3.8-6.905-.297-.929-.95-1.778-1.748-2.272-3.077-1.904-3.641-2.933-3.928-7.166-.246-3.613-.545-4.799-2.545-10.079-.437-1.154-.758-3.522-.896-6.6l-.213-4.8 2.11-4.4c1.16-2.42 2.866-6.02 3.791-8 2.262-4.841 6.473-8.987 10.956-10.784 1.716-.689 3.723-1.878 4.8-2.845 1.017-.914 3.02-2.248 4.45-2.965 1.43-.716 3.513-2.161 4.629-3.21 1.116-1.049 2.826-2.311 3.8-2.804.974-.493 2.273-1.25 2.887-1.683 1.415-.997 5.731-1.909 9.035-1.909 3.108 0 7.699-1.537 9.449-3.164 2.336-2.171 3.043-2.466 5.4-2.257 1.21.108 3.438.299 4.952.425m45.404 11.695-1.306 1.098 1.775.248c.976.136 2.585.114 3.575-.049.99-.163 1.547-.318 1.238-.346-.309-.027-1.152-.5-1.874-1.05-1.64-1.251-1.81-1.246-3.408.099m5.944 20.813c-1.286.165-1.42.689-.326 1.274 1.201.643 2.026.495 2.026-.362 0-.945-.278-1.094-1.7-.912M238.305 69.7c1.553 1.928.632 4.128-1.95 4.656-.703.144-1.402.527-1.552.853-1.519 3.282-2.019 3.622-4.146 2.813l-1.091-.415 1.611-2.374c2.328-3.428 6.325-6.53 7.128-5.533m-32.959 16.223c2.214 1.735 2.919 2.035 7.202 3.059 4.675 1.119 8.866 2.835 8.837 3.618-.008.22-.161 2.406-.341 4.858-.463 6.334 1.06 9.765 5.046 11.361 1.955.784 4.291 2.467 6.31 4.55.99 1.021 2.647 2.384 3.682 3.029 1.035.645 2.156 1.701 2.49 2.347.334.646 1.308 1.778 2.165 2.515 1.019.876 1.896 2.181 2.535 3.768l.977 2.429-.842 2.523c-.764 2.287-.991 2.581-2.425 3.137-.87.338-2.032.919-2.582 1.291-.55.372-2.075.799-3.389.948-1.333.152-3.1.684-4 1.205-.886.513-3.037 1.246-4.78 1.628-2.819.619-3.396.911-5.22 2.636-1.916 1.812-2.354 2.017-6.696 3.129-2.555.654-5.156 1.44-5.78 1.746-1.739.854-6.193.605-11.284-.629-3.847-.934-5.976-1.166-13.8-1.507-12.212-.533-13.282-.701-14.727-2.318-.629-.705-1.995-1.782-3.034-2.394-1.938-1.141-2.324-2.642-1.461-5.677.097-.343-.426-1.333-1.163-2.2-2.228-2.62-2.221-3.52.037-4.58 1.043-.489 3.167-2.083 4.719-3.542a26.003 26.003 0 0 1 6.2-4.34l3.378-1.687 2.61.609c1.857.433 2.781.872 3.2 1.522.325.502 1.001 1.553 1.504 2.336 1.258 1.956 2.555 2.415 5.711 2.017l2.575-.324-.049-2.801c-.04-2.272-.237-3.076-1.045-4.266-.634-.935-1.233-2.744-1.651-4.993-.361-1.939-1.001-4.606-1.422-5.926-.634-1.989-.678-2.537-.259-3.2.279-.44.995-2.33 1.591-4.2.683-2.141 1.867-4.585 3.197-6.6 1.162-1.76 2.529-3.956 3.037-4.879.975-1.77 1.379-1.945 4.747-2.061 1.524-.052 2.061.186 4.2 1.863M154.02 136.61c1.499.775 1.485.852-.295 1.595-1.853.775-2.928.095-2.15-1.358.54-1.009.887-1.042 2.445-.237m-14.668 14.937c.71.784.713.938.081 3.537-.375 1.539-.62 3.929-.565 5.516.069 1.994-.108 3.26-.617 4.4l-.714 1.6-1.042-2c-3.247-6.233-.857-17.157 2.857-13.053m4.03 7.853c-.477 4.431-.686 5.3-1.009 4.2-.375-1.279-.454-6.522-.112-7.414.523-1.364 1.357 1.026 1.121 3.214m109.563 2.3c.306 1.159-.159 6.261-.595 6.531-1.255.776-2.051-.727-1.781-3.363.344-3.353 1.81-5.308 2.376-3.168m-98.173 3.001c.754.384 1.719 1.174 2.145 1.755l.773 1.055-1.645 2.423c-1.717 2.528-1.989 3.873-1.281 6.34.455 1.589.16 1.73-4.22 2.019-5.488.361-6.893-3.453-4.061-11.024 1.178-3.146 4.895-4.299 8.289-2.568m92.987 7.135c.325.847-.038 1.364-.959 1.364-1.1 0-1.393-.767-.54-1.414.961-.728 1.203-.72 1.499.05m15.798 7.196c1.488 5.828.391 10.746-2.175 9.753-.65-.251-2.982-.554-5.182-.673-4.974-.268-5.632-.562-3.273-1.463 1.272-.485 1.899-.997 2.165-1.766.205-.596.818-2.433 1.361-4.083l.987-3 1.952-.487c1.074-.268 2.225-.758 2.557-1.09.763-.764.643-.973 1.608 2.809M165.4 197.176l-1.2.28 1.588.464c1.604.469 2.55.15 2.034-.685-.294-.475-.615-.482-2.422-.059"/></g></svg>